<?xml version="1.0" encoding="utf-8"?><!-- Uploaded to: SVG Repo, www.svgrepo.com, Generator: SVG Repo Mixer Tools -->
<svg width="800px" height="800px" viewBox="0 0 32 32" id="penguin_Light" data-name="penguin/Light" xmlns="http://www.w3.org/2000/svg">
  <path id="Path" d="M0,0H24V2H22V4H20V2H12V4H10V6H2V8H0Z" fill="#ffffff"/>
  <path id="Path-2" data-name="Path" d="M0,0H2V2H0Z" transform="translate(24)" fill="#1a1a1a"/>
  <path id="Path-3" data-name="Path" d="M2,0H8V32H4V16H2V10H0V6H4V4H0V2H2Z" transform="translate(24)" fill="#ffffff"/>
  <path id="Path-4" data-name="Path" d="M0,0H8V2H0Z" transform="translate(12 2)" fill="#1a1a1a"/>
  <path id="Path-5" data-name="Path" d="M0,0H2V2H0Z" transform="translate(22 2)" fill="#1a1a1a"/>
  <path id="Path-6" data-name="Path" d="M0,0H2V2H0Z" transform="translate(10 4)" fill="#1a1a1a"/>
  <path id="Path-7" data-name="Path" d="M6,0h8V2h2V8h2v6h2V26H8V24H6V22H0V12H2V6H4V2H6Z" transform="translate(6 4)" fill="#ffffff"/>
  <path id="Path-8" data-name="Path" d="M0,0H2V2H0Z" transform="translate(20 4)" fill="#1a1a1a"/>
  <path id="Path-9" data-name="Path" d="M0,0H2V2H0Z" transform="translate(22 4)" fill="#ffffff"/>
  <path id="Path-10" data-name="Path" d="M0,0H4V2H0Z" transform="translate(24 4)" fill="#1a1a1a"/>
  <path id="Path-11" data-name="Path" d="M2,0h8V4H8v6H6V8H4V6H2V4H0V2H2Z" transform="translate(0 6)" fill="#1a1a1a"/>
  <path id="Path-12" data-name="Path" d="M22,0h2V4h2v6h2V26H0V22H2v2H12V22h2v2H26V12H24V6H22Z" transform="translate(0 6)" fill="#1a1a1a"/>
  <path id="Path-13" data-name="Path" d="M0,0H2V4H0Z" transform="translate(12 8)" fill="#1a1a1a"/>
  <path id="Path-14" data-name="Path" d="M0,0H2V2H4V4H6V6H4V16H2v2H0Z" transform="translate(0 10)" fill="#ffffff"/>
  <path id="Path-15" data-name="Path" d="M0,0H2V2H0Z" transform="translate(18 14)" fill="#1a1a1a"/>
  <path id="Path-16" data-name="Path" d="M2,0H4V10h6v2H0V10H2Z" transform="translate(2 16)" fill="#1a1a1a"/>
  <path id="Path-17" data-name="Path" d="M0,0H2V6H0Z" transform="translate(20 16)" fill="#1a1a1a"/>
  <path id="Path-18" data-name="Path" d="M0,0H2V2H0Z" transform="translate(14 18)" fill="#1a1a1a"/>
  <path id="Path-19" data-name="Path" d="M0,0H2V2H0Z" transform="translate(16 20)" fill="#1a1a1a"/>
  <path id="Path-20" data-name="Path" d="M0,0H2V2H0Z" transform="translate(18 22)" fill="#1a1a1a"/>
  <path id="Path-21" data-name="Path" d="M0,0H10V2H0Z" transform="translate(2 28)" fill="#ffffff"/>
  <!-- 
    Source: https://www.svgrepo.com/svg/327960/penguin-light 
	CC Attribution License
   -->
</svg>

