<?xml version="1.0" encoding="UTF-8"?>
<!DOCTYPE svg PUBLIC "-//W3C//DTD SVG 1.1//EN" "http://www.w3.org/Graphics/SVG/1.1/DTD/svg11.dtd">
<svg xmlns="http://www.w3.org/2000/svg" version="1.1" width="2048px" height="2048px" style="shape-rendering:geometricPrecision; text-rendering:geometricPrecision; image-rendering:optimizeQuality; fill-rule:evenodd; clip-rule:evenodd" xmlns:xlink="http://www.w3.org/1999/xlink">
<g><path style="opacity:1" fill="#000000" d="M 831.5,479.5 C 799.5,479.5 767.5,479.5 735.5,479.5C 735.5,468.833 735.5,458.167 735.5,447.5C 767.5,447.5 799.5,447.5 831.5,447.5C 831.5,458.167 831.5,468.833 831.5,479.5 Z"/></g>
<g><path style="opacity:1" fill="#584443" d="M 1183.5,479.5 C 1183.5,490.167 1183.5,500.833 1183.5,511.5C 1194.17,511.5 1204.83,511.5 1215.5,511.5C 1215.5,522.167 1215.5,532.833 1215.5,543.5C 1226.17,543.5 1236.83,543.5 1247.5,543.5C 1247.5,554.167 1247.5,564.833 1247.5,575.5C 1247.5,586.167 1247.5,596.833 1247.5,607.5C 1258.17,607.5 1268.83,607.5 1279.5,607.5C 1279.5,660.833 1279.5,714.167 1279.5,767.5C 1268.83,767.5 1258.17,767.5 1247.5,767.5C 1247.5,788.833 1247.5,810.167 1247.5,831.5C 1236.83,831.5 1226.17,831.5 1215.5,831.5C 1215.5,842.167 1215.5,852.833 1215.5,863.5C 1204.83,863.5 1194.17,863.5 1183.5,863.5C 1183.5,874.167 1183.5,884.833 1183.5,895.5C 1151.5,895.5 1119.5,895.5 1087.5,895.5C 1087.5,906.167 1087.5,916.833 1087.5,927.5C 1044.83,927.5 1002.17,927.5 959.5,927.5C 938.167,927.5 916.833,927.5 895.5,927.5C 895.5,916.833 895.5,906.167 895.5,895.5C 884.833,895.5 874.167,895.5 863.5,895.5C 852.833,895.5 842.167,895.5 831.5,895.5C 831.5,884.833 831.5,874.167 831.5,863.5C 820.833,863.5 810.167,863.5 799.5,863.5C 788.833,863.5 778.167,863.5 767.5,863.5C 756.833,863.5 746.167,863.5 735.5,863.5C 735.5,852.833 735.5,842.167 735.5,831.5C 724.833,831.5 714.167,831.5 703.5,831.5C 703.5,820.833 703.5,810.167 703.5,799.5C 703.5,788.833 703.5,778.167 703.5,767.5C 703.5,756.833 703.5,746.167 703.5,735.5C 714.167,735.5 724.833,735.5 735.5,735.5C 735.5,746.167 735.5,756.833 735.5,767.5C 756.833,767.5 778.167,767.5 799.5,767.5C 810.167,767.5 820.833,767.5 831.5,767.5C 842.167,767.5 852.833,767.5 863.5,767.5C 863.5,756.833 863.5,746.167 863.5,735.5C 874.167,735.5 884.833,735.5 895.5,735.5C 895.5,724.833 895.5,714.167 895.5,703.5C 895.5,692.833 895.5,682.167 895.5,671.5C 906.167,671.5 916.833,671.5 927.5,671.5C 927.5,692.833 927.5,714.167 927.5,735.5C 938.167,735.5 948.833,735.5 959.5,735.5C 959.5,746.167 959.5,756.833 959.5,767.5C 970.167,767.5 980.833,767.5 991.5,767.5C 991.5,778.167 991.5,788.833 991.5,799.5C 1023.5,799.5 1055.5,799.5 1087.5,799.5C 1087.5,788.833 1087.5,778.167 1087.5,767.5C 1098.17,767.5 1108.83,767.5 1119.5,767.5C 1119.5,756.833 1119.5,746.167 1119.5,735.5C 1130.17,735.5 1140.83,735.5 1151.5,735.5C 1151.5,703.5 1151.5,671.5 1151.5,639.5C 1140.83,639.5 1130.17,639.5 1119.5,639.5C 1119.5,628.833 1119.5,618.167 1119.5,607.5C 1108.83,607.5 1098.17,607.5 1087.5,607.5C 1087.5,596.833 1087.5,586.167 1087.5,575.5C 1055.5,575.5 1023.5,575.5 991.5,575.5C 991.5,586.167 991.5,596.833 991.5,607.5C 959.5,607.5 927.5,607.5 895.5,607.5C 895.5,575.5 895.5,543.5 895.5,511.5C 906.167,511.5 916.833,511.5 927.5,511.5C 927.5,500.833 927.5,490.167 927.5,479.5C 948.833,479.5 970.167,479.5 991.5,479.5C 991.5,468.833 991.5,458.167 991.5,447.5C 1044.83,447.5 1098.17,447.5 1151.5,447.5C 1151.5,458.167 1151.5,468.833 1151.5,479.5C 1162.17,479.5 1172.83,479.5 1183.5,479.5 Z"/></g>
<g><path style="opacity:1" fill="#000000" d="M 735.5,479.5 C 735.5,490.167 735.5,500.833 735.5,511.5C 724.833,511.5 714.167,511.5 703.5,511.5C 703.5,500.833 703.5,490.167 703.5,479.5C 714.167,479.5 724.833,479.5 735.5,479.5 Z"/></g>
<g><path style="opacity:0.176" fill="#fefffe" d="M 735.5,479.5 C 767.5,479.5 799.5,479.5 831.5,479.5C 831.5,490.167 831.5,500.833 831.5,511.5C 842.167,511.5 852.833,511.5 863.5,511.5C 863.5,543.5 863.5,575.5 863.5,607.5C 852.833,607.5 842.167,607.5 831.5,607.5C 831.5,618.167 831.5,628.833 831.5,639.5C 799.5,639.5 767.5,639.5 735.5,639.5C 735.5,628.833 735.5,618.167 735.5,607.5C 724.833,607.5 714.167,607.5 703.5,607.5C 703.5,575.5 703.5,543.5 703.5,511.5C 714.167,511.5 724.833,511.5 735.5,511.5C 735.5,500.833 735.5,490.167 735.5,479.5 Z"/></g>
<g><path style="opacity:1" fill="#000000" d="M 831.5,479.5 C 842.167,479.5 852.833,479.5 863.5,479.5C 863.5,490.167 863.5,500.833 863.5,511.5C 863.5,500.833 863.5,490.167 863.5,479.5C 852.833,479.5 842.167,479.5 831.5,479.5 Z"/></g>
<g><path style="opacity:1" fill="#463234" d="M 1183.5,479.5 C 1194.17,479.5 1204.83,479.5 1215.5,479.5C 1215.5,490.167 1215.5,500.833 1215.5,511.5C 1215.5,500.833 1215.5,490.167 1215.5,479.5C 1204.83,479.5 1194.17,479.5 1183.5,479.5 Z"/></g>
<g><path style="opacity:1" fill="#000000" d="M 703.5,511.5 C 703.5,543.5 703.5,575.5 703.5,607.5C 692.833,607.5 682.167,607.5 671.5,607.5C 671.5,575.5 671.5,543.5 671.5,511.5C 682.167,511.5 692.833,511.5 703.5,511.5 Z"/></g>
<g><path style="opacity:1" fill="#000000" d="M 863.5,511.5 C 874.167,511.5 884.833,511.5 895.5,511.5C 895.5,543.5 895.5,575.5 895.5,607.5C 927.5,607.5 959.5,607.5 991.5,607.5C 991.5,618.167 991.5,628.833 991.5,639.5C 980.833,639.5 970.167,639.5 959.5,639.5C 959.5,671.5 959.5,703.5 959.5,735.5C 948.833,735.5 938.167,735.5 927.5,735.5C 927.5,714.167 927.5,692.833 927.5,671.5C 916.833,671.5 906.167,671.5 895.5,671.5C 895.5,660.833 895.5,650.167 895.5,639.5C 884.833,639.5 874.167,639.5 863.5,639.5C 852.833,639.5 842.167,639.5 831.5,639.5C 831.5,628.833 831.5,618.167 831.5,607.5C 842.167,607.5 852.833,607.5 863.5,607.5C 863.5,575.5 863.5,543.5 863.5,511.5 Z"/></g>
<g><path style="opacity:1" fill="#463234" d="M 1215.5,511.5 C 1226.17,511.5 1236.83,511.5 1247.5,511.5C 1247.5,522.167 1247.5,532.833 1247.5,543.5C 1247.5,532.833 1247.5,522.167 1247.5,511.5C 1236.83,511.5 1226.17,511.5 1215.5,511.5 Z"/></g>
<g><path style="opacity:1" fill="#463234" d="M 1247.5,543.5 C 1258.17,543.5 1268.83,543.5 1279.5,543.5C 1279.5,554.167 1279.5,564.833 1279.5,575.5C 1268.83,575.5 1258.17,575.5 1247.5,575.5C 1247.5,564.833 1247.5,554.167 1247.5,543.5 Z"/></g>
<g><path style="opacity:1" fill="#000000" d="M 1087.5,607.5 C 1055.5,607.5 1023.5,607.5 991.5,607.5C 991.5,596.833 991.5,586.167 991.5,575.5C 1023.5,575.5 1055.5,575.5 1087.5,575.5C 1087.5,586.167 1087.5,596.833 1087.5,607.5 Z"/></g>
<g><path style="opacity:1" fill="#513b3b" d="M 1247.5,575.5 C 1258.17,575.5 1268.83,575.5 1279.5,575.5C 1279.5,586.167 1279.5,596.833 1279.5,607.5C 1268.83,607.5 1258.17,607.5 1247.5,607.5C 1247.5,596.833 1247.5,586.167 1247.5,575.5 Z"/></g>
<g><path style="opacity:1" fill="#463234" d="M 1279.5,575.5 C 1290.17,575.5 1300.83,575.5 1311.5,575.5C 1311.5,586.167 1311.5,596.833 1311.5,607.5C 1300.83,607.5 1290.17,607.5 1279.5,607.5C 1279.5,596.833 1279.5,586.167 1279.5,575.5 Z"/></g>
<g><path style="opacity:1" fill="#000000" d="M 703.5,607.5 C 714.167,607.5 724.833,607.5 735.5,607.5C 735.5,618.167 735.5,628.833 735.5,639.5C 724.833,639.5 714.167,639.5 703.5,639.5C 703.5,628.833 703.5,618.167 703.5,607.5 Z"/></g>
<g><path style="opacity:1" fill="#756564" d="M 991.5,607.5 C 1023.5,607.5 1055.5,607.5 1087.5,607.5C 1098.17,607.5 1108.83,607.5 1119.5,607.5C 1119.5,618.167 1119.5,628.833 1119.5,639.5C 1119.5,671.5 1119.5,703.5 1119.5,735.5C 1108.83,735.5 1098.17,735.5 1087.5,735.5C 1087.5,746.167 1087.5,756.833 1087.5,767.5C 1055.5,767.5 1023.5,767.5 991.5,767.5C 980.833,767.5 970.167,767.5 959.5,767.5C 959.5,756.833 959.5,746.167 959.5,735.5C 959.5,703.5 959.5,671.5 959.5,639.5C 970.167,639.5 980.833,639.5 991.5,639.5C 991.5,628.833 991.5,618.167 991.5,607.5 Z"/></g>
<g><path style="opacity:1" fill="#000000" d="M 1087.5,607.5 C 1098.17,607.5 1108.83,607.5 1119.5,607.5C 1119.5,618.167 1119.5,628.833 1119.5,639.5C 1108.83,639.5 1098.17,639.5 1087.5,639.5C 1087.5,628.833 1087.5,618.167 1087.5,607.5 Z"/></g>
<g><path style="opacity:1" fill="#513b3b" d="M 1279.5,607.5 C 1290.17,607.5 1300.83,607.5 1311.5,607.5C 1311.5,618.167 1311.5,628.833 1311.5,639.5C 1311.5,692.833 1311.5,746.167 1311.5,799.5C 1300.83,799.5 1290.17,799.5 1279.5,799.5C 1279.5,820.833 1279.5,842.167 1279.5,863.5C 1268.83,863.5 1258.17,863.5 1247.5,863.5C 1247.5,874.167 1247.5,884.833 1247.5,895.5C 1226.17,895.5 1204.83,895.5 1183.5,895.5C 1183.5,884.833 1183.5,874.167 1183.5,863.5C 1194.17,863.5 1204.83,863.5 1215.5,863.5C 1215.5,852.833 1215.5,842.167 1215.5,831.5C 1226.17,831.5 1236.83,831.5 1247.5,831.5C 1247.5,810.167 1247.5,788.833 1247.5,767.5C 1258.17,767.5 1268.83,767.5 1279.5,767.5C 1279.5,714.167 1279.5,660.833 1279.5,607.5 Z"/></g>
<g><path style="opacity:0.163" fill="#fefffe" d="M 703.5,767.5 C 703.5,778.167 703.5,788.833 703.5,799.5C 692.833,799.5 682.167,799.5 671.5,799.5C 671.5,820.833 671.5,842.167 671.5,863.5C 682.167,863.5 692.833,863.5 703.5,863.5C 703.5,874.167 703.5,884.833 703.5,895.5C 703.5,906.167 703.5,916.833 703.5,927.5C 692.833,927.5 682.167,927.5 671.5,927.5C 671.5,916.833 671.5,906.167 671.5,895.5C 660.833,895.5 650.167,895.5 639.5,895.5C 628.833,895.5 618.167,895.5 607.5,895.5C 596.833,895.5 586.167,895.5 575.5,895.5C 575.5,884.833 575.5,874.167 575.5,863.5C 575.5,842.167 575.5,820.833 575.5,799.5C 564.833,799.5 554.167,799.5 543.5,799.5C 543.5,767.5 543.5,735.5 543.5,703.5C 554.167,703.5 564.833,703.5 575.5,703.5C 575.5,692.833 575.5,682.167 575.5,671.5C 586.167,671.5 596.833,671.5 607.5,671.5C 607.5,660.833 607.5,650.167 607.5,639.5C 618.167,639.5 628.833,639.5 639.5,639.5C 639.5,650.167 639.5,660.833 639.5,671.5C 650.167,671.5 660.833,671.5 671.5,671.5C 671.5,682.167 671.5,692.833 671.5,703.5C 660.833,703.5 650.167,703.5 639.5,703.5C 639.5,714.167 639.5,724.833 639.5,735.5C 650.167,735.5 660.833,735.5 671.5,735.5C 671.5,746.167 671.5,756.833 671.5,767.5C 682.167,767.5 692.833,767.5 703.5,767.5 Z"/></g>
<g><path style="opacity:1" fill="#000000" d="M 735.5,639.5 C 767.5,639.5 799.5,639.5 831.5,639.5C 831.5,650.167 831.5,660.833 831.5,671.5C 810.167,671.5 788.833,671.5 767.5,671.5C 756.833,671.5 746.167,671.5 735.5,671.5C 735.5,660.833 735.5,650.167 735.5,639.5 Z"/></g>
<g><path style="opacity:1" fill="#dba2a1" d="M 831.5,639.5 C 842.167,639.5 852.833,639.5 863.5,639.5C 863.5,650.167 863.5,660.833 863.5,671.5C 863.5,682.167 863.5,692.833 863.5,703.5C 852.833,703.5 842.167,703.5 831.5,703.5C 831.5,714.167 831.5,724.833 831.5,735.5C 820.833,735.5 810.167,735.5 799.5,735.5C 799.5,746.167 799.5,756.833 799.5,767.5C 778.167,767.5 756.833,767.5 735.5,767.5C 735.5,756.833 735.5,746.167 735.5,735.5C 746.167,735.5 756.833,735.5 767.5,735.5C 767.5,714.167 767.5,692.833 767.5,671.5C 788.833,671.5 810.167,671.5 831.5,671.5C 831.5,660.833 831.5,650.167 831.5,639.5 Z"/></g>
<g><path style="opacity:1" fill="#d0807f" d="M 863.5,639.5 C 874.167,639.5 884.833,639.5 895.5,639.5C 895.5,650.167 895.5,660.833 895.5,671.5C 884.833,671.5 874.167,671.5 863.5,671.5C 863.5,660.833 863.5,650.167 863.5,639.5 Z"/></g>
<g><path style="opacity:1" fill="#000000" d="M 1119.5,639.5 C 1130.17,639.5 1140.83,639.5 1151.5,639.5C 1151.5,671.5 1151.5,703.5 1151.5,735.5C 1140.83,735.5 1130.17,735.5 1119.5,735.5C 1119.5,703.5 1119.5,671.5 1119.5,639.5 Z"/></g>
<g><path style="opacity:1" fill="#463234" d="M 1311.5,639.5 C 1322.17,639.5 1332.83,639.5 1343.5,639.5C 1343.5,714.167 1343.5,788.833 1343.5,863.5C 1332.83,863.5 1322.17,863.5 1311.5,863.5C 1311.5,874.167 1311.5,884.833 1311.5,895.5C 1300.83,895.5 1290.17,895.5 1279.5,895.5C 1279.5,906.167 1279.5,916.833 1279.5,927.5C 1258.17,927.5 1236.83,927.5 1215.5,927.5C 1215.5,938.167 1215.5,948.833 1215.5,959.5C 1194.17,959.5 1172.83,959.5 1151.5,959.5C 1151.5,970.167 1151.5,980.833 1151.5,991.5C 1130.17,991.5 1108.83,991.5 1087.5,991.5C 1087.5,1002.17 1087.5,1012.83 1087.5,1023.5C 1023.5,1023.5 959.5,1023.5 895.5,1023.5C 895.5,1055.5 895.5,1087.5 895.5,1119.5C 906.167,1119.5 916.833,1119.5 927.5,1119.5C 927.5,1130.17 927.5,1140.83 927.5,1151.5C 938.167,1151.5 948.833,1151.5 959.5,1151.5C 959.5,1162.17 959.5,1172.83 959.5,1183.5C 1023.5,1183.5 1087.5,1183.5 1151.5,1183.5C 1151.5,1172.83 1151.5,1162.17 1151.5,1151.5C 1162.17,1151.5 1172.83,1151.5 1183.5,1151.5C 1183.5,1119.5 1183.5,1087.5 1183.5,1055.5C 1194.17,1055.5 1204.83,1055.5 1215.5,1055.5C 1215.5,1066.17 1215.5,1076.83 1215.5,1087.5C 1226.17,1087.5 1236.83,1087.5 1247.5,1087.5C 1247.5,1108.83 1247.5,1130.17 1247.5,1151.5C 1236.83,1151.5 1226.17,1151.5 1215.5,1151.5C 1215.5,1172.83 1215.5,1194.17 1215.5,1215.5C 1204.83,1215.5 1194.17,1215.5 1183.5,1215.5C 1183.5,1226.17 1183.5,1236.83 1183.5,1247.5C 1172.83,1247.5 1162.17,1247.5 1151.5,1247.5C 1151.5,1258.17 1151.5,1268.83 1151.5,1279.5C 1140.83,1279.5 1130.17,1279.5 1119.5,1279.5C 1108.83,1279.5 1098.17,1279.5 1087.5,1279.5C 1076.83,1279.5 1066.17,1279.5 1055.5,1279.5C 1055.5,1268.83 1055.5,1258.17 1055.5,1247.5C 1023.5,1247.5 991.5,1247.5 959.5,1247.5C 959.5,1236.83 959.5,1226.17 959.5,1215.5C 938.167,1215.5 916.833,1215.5 895.5,1215.5C 895.5,1204.83 895.5,1194.17 895.5,1183.5C 884.833,1183.5 874.167,1183.5 863.5,1183.5C 863.5,1172.83 863.5,1162.17 863.5,1151.5C 852.833,1151.5 842.167,1151.5 831.5,1151.5C 831.5,1140.83 831.5,1130.17 831.5,1119.5C 820.833,1119.5 810.167,1119.5 799.5,1119.5C 799.5,1087.5 799.5,1055.5 799.5,1023.5C 799.5,1012.83 799.5,1002.17 799.5,991.5C 810.167,991.5 820.833,991.5 831.5,991.5C 831.5,970.167 831.5,948.833 831.5,927.5C 820.833,927.5 810.167,927.5 799.5,927.5C 799.5,916.833 799.5,906.167 799.5,895.5C 810.167,895.5 820.833,895.5 831.5,895.5C 842.167,895.5 852.833,895.5 863.5,895.5C 874.167,895.5 884.833,895.5 895.5,895.5C 895.5,906.167 895.5,916.833 895.5,927.5C 916.833,927.5 938.167,927.5 959.5,927.5C 959.5,938.167 959.5,948.833 959.5,959.5C 1002.17,959.5 1044.83,959.5 1087.5,959.5C 1087.5,948.833 1087.5,938.167 1087.5,927.5C 1119.5,927.5 1151.5,927.5 1183.5,927.5C 1183.5,916.833 1183.5,906.167 1183.5,895.5C 1204.83,895.5 1226.17,895.5 1247.5,895.5C 1247.5,884.833 1247.5,874.167 1247.5,863.5C 1258.17,863.5 1268.83,863.5 1279.5,863.5C 1279.5,842.167 1279.5,820.833 1279.5,799.5C 1290.17,799.5 1300.83,799.5 1311.5,799.5C 1311.5,746.167 1311.5,692.833 1311.5,639.5 Z"/></g>
<g><path style="opacity:1" fill="#d0898d" d="M 735.5,671.5 C 746.167,671.5 756.833,671.5 767.5,671.5C 767.5,692.833 767.5,714.167 767.5,735.5C 756.833,735.5 746.167,735.5 735.5,735.5C 724.833,735.5 714.167,735.5 703.5,735.5C 703.5,714.167 703.5,692.833 703.5,671.5C 714.167,671.5 724.833,671.5 735.5,671.5 Z"/></g>
<g><path style="opacity:1" fill="#7d6864" d="M 863.5,671.5 C 874.167,671.5 884.833,671.5 895.5,671.5C 895.5,682.167 895.5,692.833 895.5,703.5C 884.833,703.5 874.167,703.5 863.5,703.5C 863.5,692.833 863.5,682.167 863.5,671.5 Z"/></g>
<g><path style="opacity:1" fill="#5a4e51" d="M 1023.5,671.5 C 1034.17,671.5 1044.83,671.5 1055.5,671.5C 1055.5,682.167 1055.5,692.833 1055.5,703.5C 1044.83,703.5 1034.17,703.5 1023.5,703.5C 1023.5,692.833 1023.5,682.167 1023.5,671.5 Z"/></g>
<g><path style="opacity:1" fill="#d0807f" d="M 863.5,703.5 C 863.5,714.167 863.5,724.833 863.5,735.5C 852.833,735.5 842.167,735.5 831.5,735.5C 831.5,724.833 831.5,714.167 831.5,703.5C 842.167,703.5 852.833,703.5 863.5,703.5 Z"/></g>
<g><path style="opacity:1" fill="#6b5956" d="M 863.5,703.5 C 874.167,703.5 884.833,703.5 895.5,703.5C 895.5,714.167 895.5,724.833 895.5,735.5C 884.833,735.5 874.167,735.5 863.5,735.5C 863.5,724.833 863.5,714.167 863.5,703.5 Z"/></g>
<g><path style="opacity:1" fill="#d0807f" d="M 831.5,735.5 C 831.5,746.167 831.5,756.833 831.5,767.5C 820.833,767.5 810.167,767.5 799.5,767.5C 799.5,756.833 799.5,746.167 799.5,735.5C 810.167,735.5 820.833,735.5 831.5,735.5 Z"/></g>
<g><path style="opacity:1" fill="#6b5956" d="M 831.5,735.5 C 842.167,735.5 852.833,735.5 863.5,735.5C 863.5,746.167 863.5,756.833 863.5,767.5C 852.833,767.5 842.167,767.5 831.5,767.5C 831.5,756.833 831.5,746.167 831.5,735.5 Z"/></g>
<g><path style="opacity:1" fill="#000000" d="M 959.5,735.5 C 970.167,735.5 980.833,735.5 991.5,735.5C 991.5,746.167 991.5,756.833 991.5,767.5C 991.5,756.833 991.5,746.167 991.5,735.5C 980.833,735.5 970.167,735.5 959.5,735.5 Z"/></g>
<g><path style="opacity:1" fill="#000000" d="M 1119.5,735.5 C 1119.5,746.167 1119.5,756.833 1119.5,767.5C 1108.83,767.5 1098.17,767.5 1087.5,767.5C 1087.5,756.833 1087.5,746.167 1087.5,735.5C 1098.17,735.5 1108.83,735.5 1119.5,735.5 Z"/></g>
<g><path style="opacity:1" fill="#000000" d="M 991.5,767.5 C 1023.5,767.5 1055.5,767.5 1087.5,767.5C 1087.5,778.167 1087.5,788.833 1087.5,799.5C 1055.5,799.5 1023.5,799.5 991.5,799.5C 991.5,788.833 991.5,778.167 991.5,767.5 Z"/></g>
<g><path style="opacity:1" fill="#584443" d="M 575.5,863.5 C 575.5,874.167 575.5,884.833 575.5,895.5C 564.833,895.5 554.167,895.5 543.5,895.5C 543.5,906.167 543.5,916.833 543.5,927.5C 532.833,927.5 522.167,927.5 511.5,927.5C 511.5,938.167 511.5,948.833 511.5,959.5C 500.833,959.5 490.167,959.5 479.5,959.5C 479.5,970.167 479.5,980.833 479.5,991.5C 479.5,1002.17 479.5,1012.83 479.5,1023.5C 468.833,1023.5 458.167,1023.5 447.5,1023.5C 447.5,1034.17 447.5,1044.83 447.5,1055.5C 436.833,1055.5 426.167,1055.5 415.5,1055.5C 415.5,1066.17 415.5,1076.83 415.5,1087.5C 426.167,1087.5 436.833,1087.5 447.5,1087.5C 447.5,1098.17 447.5,1108.83 447.5,1119.5C 447.5,1130.17 447.5,1140.83 447.5,1151.5C 426.167,1151.5 404.833,1151.5 383.5,1151.5C 383.5,1087.5 383.5,1023.5 383.5,959.5C 394.167,959.5 404.833,959.5 415.5,959.5C 415.5,948.833 415.5,938.167 415.5,927.5C 426.167,927.5 436.833,927.5 447.5,927.5C 447.5,916.833 447.5,906.167 447.5,895.5C 468.833,895.5 490.167,895.5 511.5,895.5C 511.5,884.833 511.5,874.167 511.5,863.5C 532.833,863.5 554.167,863.5 575.5,863.5 Z"/></g>
<g><path style="opacity:1" fill="#463234" d="M 767.5,863.5 C 778.167,863.5 788.833,863.5 799.5,863.5C 799.5,874.167 799.5,884.833 799.5,895.5C 788.833,895.5 778.167,895.5 767.5,895.5C 767.5,884.833 767.5,874.167 767.5,863.5 Z"/></g>
<g><path style="opacity:1" fill="#513b3b" d="M 799.5,863.5 C 810.167,863.5 820.833,863.5 831.5,863.5C 831.5,874.167 831.5,884.833 831.5,895.5C 820.833,895.5 810.167,895.5 799.5,895.5C 799.5,884.833 799.5,874.167 799.5,863.5 Z"/></g>
<g><path style="opacity:1" fill="#513b3b" d="M 1343.5,863.5 C 1343.5,874.167 1343.5,884.833 1343.5,895.5C 1354.17,895.5 1364.83,895.5 1375.5,895.5C 1375.5,906.167 1375.5,916.833 1375.5,927.5C 1375.5,938.167 1375.5,948.833 1375.5,959.5C 1343.5,959.5 1311.5,959.5 1279.5,959.5C 1279.5,970.167 1279.5,980.833 1279.5,991.5C 1268.83,991.5 1258.17,991.5 1247.5,991.5C 1247.5,1012.83 1247.5,1034.17 1247.5,1055.5C 1258.17,1055.5 1268.83,1055.5 1279.5,1055.5C 1279.5,1076.83 1279.5,1098.17 1279.5,1119.5C 1290.17,1119.5 1300.83,1119.5 1311.5,1119.5C 1311.5,1140.83 1311.5,1162.17 1311.5,1183.5C 1300.83,1183.5 1290.17,1183.5 1279.5,1183.5C 1279.5,1172.83 1279.5,1162.17 1279.5,1151.5C 1268.83,1151.5 1258.17,1151.5 1247.5,1151.5C 1247.5,1130.17 1247.5,1108.83 1247.5,1087.5C 1236.83,1087.5 1226.17,1087.5 1215.5,1087.5C 1215.5,1076.83 1215.5,1066.17 1215.5,1055.5C 1204.83,1055.5 1194.17,1055.5 1183.5,1055.5C 1183.5,1087.5 1183.5,1119.5 1183.5,1151.5C 1172.83,1151.5 1162.17,1151.5 1151.5,1151.5C 1151.5,1162.17 1151.5,1172.83 1151.5,1183.5C 1087.5,1183.5 1023.5,1183.5 959.5,1183.5C 959.5,1172.83 959.5,1162.17 959.5,1151.5C 948.833,1151.5 938.167,1151.5 927.5,1151.5C 927.5,1140.83 927.5,1130.17 927.5,1119.5C 916.833,1119.5 906.167,1119.5 895.5,1119.5C 895.5,1087.5 895.5,1055.5 895.5,1023.5C 959.5,1023.5 1023.5,1023.5 1087.5,1023.5C 1087.5,1012.83 1087.5,1002.17 1087.5,991.5C 1108.83,991.5 1130.17,991.5 1151.5,991.5C 1151.5,980.833 1151.5,970.167 1151.5,959.5C 1172.83,959.5 1194.17,959.5 1215.5,959.5C 1215.5,948.833 1215.5,938.167 1215.5,927.5C 1236.83,927.5 1258.17,927.5 1279.5,927.5C 1279.5,916.833 1279.5,906.167 1279.5,895.5C 1290.17,895.5 1300.83,895.5 1311.5,895.5C 1311.5,884.833 1311.5,874.167 1311.5,863.5C 1322.17,863.5 1332.83,863.5 1343.5,863.5 Z"/></g>
<g><path style="opacity:1" fill="#463234" d="M 1343.5,863.5 C 1354.17,863.5 1364.83,863.5 1375.5,863.5C 1375.5,874.167 1375.5,884.833 1375.5,895.5C 1375.5,884.833 1375.5,874.167 1375.5,863.5C 1364.83,863.5 1354.17,863.5 1343.5,863.5 Z"/></g>
<g><path style="opacity:1" fill="#5e4b4a" d="M 575.5,895.5 C 575.5,906.167 575.5,916.833 575.5,927.5C 564.833,927.5 554.167,927.5 543.5,927.5C 543.5,916.833 543.5,906.167 543.5,895.5C 554.167,895.5 564.833,895.5 575.5,895.5 Z"/></g>
<g><path style="opacity:1" fill="#897d7e" d="M 575.5,895.5 C 586.167,895.5 596.833,895.5 607.5,895.5C 607.5,906.167 607.5,916.833 607.5,927.5C 596.833,927.5 586.167,927.5 575.5,927.5C 575.5,916.833 575.5,906.167 575.5,895.5 Z"/></g>
<g><path style="opacity:1" fill="#655352" d="M 607.5,895.5 C 618.167,895.5 628.833,895.5 639.5,895.5C 639.5,906.167 639.5,916.833 639.5,927.5C 639.5,938.167 639.5,948.833 639.5,959.5C 628.833,959.5 618.167,959.5 607.5,959.5C 607.5,948.833 607.5,938.167 607.5,927.5C 607.5,916.833 607.5,906.167 607.5,895.5 Z"/></g>
<g><path style="opacity:1" fill="#a29796" d="M 639.5,895.5 C 650.167,895.5 660.833,895.5 671.5,895.5C 671.5,906.167 671.5,916.833 671.5,927.5C 660.833,927.5 650.167,927.5 639.5,927.5C 639.5,916.833 639.5,906.167 639.5,895.5 Z"/></g>
<g><path style="opacity:1" fill="#5e4b4a" d="M 703.5,895.5 C 724.833,895.5 746.167,895.5 767.5,895.5C 767.5,906.167 767.5,916.833 767.5,927.5C 756.833,927.5 746.167,927.5 735.5,927.5C 724.833,927.5 714.167,927.5 703.5,927.5C 703.5,916.833 703.5,906.167 703.5,895.5 Z"/></g>
<g><path style="opacity:1" fill="#584443" d="M 767.5,895.5 C 778.167,895.5 788.833,895.5 799.5,895.5C 799.5,906.167 799.5,916.833 799.5,927.5C 788.833,927.5 778.167,927.5 767.5,927.5C 767.5,916.833 767.5,906.167 767.5,895.5 Z"/></g>
<g><path style="opacity:1" fill="#513b3b" d="M 863.5,895.5 C 874.167,895.5 884.833,895.5 895.5,895.5C 895.5,906.167 895.5,916.833 895.5,927.5C 884.833,927.5 874.167,927.5 863.5,927.5C 863.5,916.833 863.5,906.167 863.5,895.5 Z"/></g>
<g><path style="opacity:1" fill="#513b3b" d="M 1183.5,895.5 C 1183.5,906.167 1183.5,916.833 1183.5,927.5C 1151.5,927.5 1119.5,927.5 1087.5,927.5C 1087.5,916.833 1087.5,906.167 1087.5,895.5C 1119.5,895.5 1151.5,895.5 1183.5,895.5 Z"/></g>
<g><path style="opacity:1" fill="#554244" d="M 543.5,927.5 C 554.167,927.5 564.833,927.5 575.5,927.5C 575.5,938.167 575.5,948.833 575.5,959.5C 564.833,959.5 554.167,959.5 543.5,959.5C 543.5,948.833 543.5,938.167 543.5,927.5 Z"/></g>
<g><path style="opacity:1" fill="#958887" d="M 575.5,927.5 C 586.167,927.5 596.833,927.5 607.5,927.5C 607.5,938.167 607.5,948.833 607.5,959.5C 596.833,959.5 586.167,959.5 575.5,959.5C 575.5,948.833 575.5,938.167 575.5,927.5 Z"/></g>
<g><path style="opacity:1" fill="#e4b8b7" d="M 639.5,927.5 C 650.167,927.5 660.833,927.5 671.5,927.5C 671.5,938.167 671.5,948.833 671.5,959.5C 660.833,959.5 650.167,959.5 639.5,959.5C 639.5,948.833 639.5,938.167 639.5,927.5 Z"/></g>
<g><path style="opacity:1" fill="#a29796" d="M 671.5,927.5 C 682.167,927.5 692.833,927.5 703.5,927.5C 703.5,938.167 703.5,948.833 703.5,959.5C 692.833,959.5 682.167,959.5 671.5,959.5C 671.5,948.833 671.5,938.167 671.5,927.5 Z"/></g>
<g><path style="opacity:1" fill="#655352" d="M 703.5,927.5 C 714.167,927.5 724.833,927.5 735.5,927.5C 735.5,948.833 735.5,970.167 735.5,991.5C 724.833,991.5 714.167,991.5 703.5,991.5C 703.5,980.833 703.5,970.167 703.5,959.5C 703.5,948.833 703.5,938.167 703.5,927.5 Z"/></g>
<g><path style="opacity:1" fill="#4d3a3b" d="M 767.5,927.5 C 778.167,927.5 788.833,927.5 799.5,927.5C 799.5,938.167 799.5,948.833 799.5,959.5C 788.833,959.5 778.167,959.5 767.5,959.5C 767.5,948.833 767.5,938.167 767.5,927.5 Z"/></g>
<g><path style="opacity:1" fill="#38292c" d="M 799.5,927.5 C 810.167,927.5 820.833,927.5 831.5,927.5C 831.5,948.833 831.5,970.167 831.5,991.5C 820.833,991.5 810.167,991.5 799.5,991.5C 799.5,980.833 799.5,970.167 799.5,959.5C 799.5,948.833 799.5,938.167 799.5,927.5 Z"/></g>
<g><path style="opacity:1" fill="#513b3b" d="M 959.5,927.5 C 1002.17,927.5 1044.83,927.5 1087.5,927.5C 1087.5,938.167 1087.5,948.833 1087.5,959.5C 1044.83,959.5 1002.17,959.5 959.5,959.5C 959.5,948.833 959.5,938.167 959.5,927.5 Z"/></g>
<g><path style="opacity:1" fill="#463234" d="M 1375.5,927.5 C 1386.17,927.5 1396.83,927.5 1407.5,927.5C 1407.5,938.167 1407.5,948.833 1407.5,959.5C 1396.83,959.5 1386.17,959.5 1375.5,959.5C 1375.5,948.833 1375.5,938.167 1375.5,927.5 Z"/></g>
<g><path style="opacity:1" fill="#d18181" d="M 543.5,927.5 C 543.5,938.167 543.5,948.833 543.5,959.5C 543.5,970.167 543.5,980.833 543.5,991.5C 543.5,1002.17 543.5,1012.83 543.5,1023.5C 532.833,1023.5 522.167,1023.5 511.5,1023.5C 511.5,1012.83 511.5,1002.17 511.5,991.5C 500.833,991.5 490.167,991.5 479.5,991.5C 479.5,980.833 479.5,970.167 479.5,959.5C 490.167,959.5 500.833,959.5 511.5,959.5C 511.5,948.833 511.5,938.167 511.5,927.5C 522.167,927.5 532.833,927.5 543.5,927.5 Z"/></g>
<g><path style="opacity:1" fill="#dea9a8" d="M 543.5,959.5 C 554.167,959.5 564.833,959.5 575.5,959.5C 575.5,970.167 575.5,980.833 575.5,991.5C 564.833,991.5 554.167,991.5 543.5,991.5C 543.5,980.833 543.5,970.167 543.5,959.5 Z"/></g>
<g><path style="opacity:1" fill="#f2e6d8" d="M 575.5,959.5 C 586.167,959.5 596.833,959.5 607.5,959.5C 618.167,959.5 628.833,959.5 639.5,959.5C 639.5,970.167 639.5,980.833 639.5,991.5C 628.833,991.5 618.167,991.5 607.5,991.5C 596.833,991.5 586.167,991.5 575.5,991.5C 575.5,980.833 575.5,970.167 575.5,959.5 Z"/></g>
<g><path style="opacity:1" fill="#f7efe6" d="M 639.5,959.5 C 650.167,959.5 660.833,959.5 671.5,959.5C 682.167,959.5 692.833,959.5 703.5,959.5C 703.5,970.167 703.5,980.833 703.5,991.5C 692.833,991.5 682.167,991.5 671.5,991.5C 660.833,991.5 650.167,991.5 639.5,991.5C 639.5,980.833 639.5,970.167 639.5,959.5 Z"/></g>
<g><path style="opacity:1" fill="#938587" d="M 735.5,927.5 C 746.167,927.5 756.833,927.5 767.5,927.5C 767.5,938.167 767.5,948.833 767.5,959.5C 767.5,970.167 767.5,980.833 767.5,991.5C 756.833,991.5 746.167,991.5 735.5,991.5C 735.5,970.167 735.5,948.833 735.5,927.5 Z"/></g>
<g><path style="opacity:1" fill="#3f3134" d="M 767.5,959.5 C 778.167,959.5 788.833,959.5 799.5,959.5C 799.5,970.167 799.5,980.833 799.5,991.5C 799.5,1002.17 799.5,1012.83 799.5,1023.5C 788.833,1023.5 778.167,1023.5 767.5,1023.5C 767.5,1012.83 767.5,1002.17 767.5,991.5C 767.5,980.833 767.5,970.167 767.5,959.5 Z"/></g>
<g><path style="opacity:1" fill="#584443" d="M 1375.5,959.5 C 1386.17,959.5 1396.83,959.5 1407.5,959.5C 1407.5,970.167 1407.5,980.833 1407.5,991.5C 1418.17,991.5 1428.83,991.5 1439.5,991.5C 1439.5,1002.17 1439.5,1012.83 1439.5,1023.5C 1439.5,1034.17 1439.5,1044.83 1439.5,1055.5C 1450.17,1055.5 1460.83,1055.5 1471.5,1055.5C 1471.5,1066.17 1471.5,1076.83 1471.5,1087.5C 1482.17,1087.5 1492.83,1087.5 1503.5,1087.5C 1503.5,1108.83 1503.5,1130.17 1503.5,1151.5C 1514.17,1151.5 1524.83,1151.5 1535.5,1151.5C 1535.5,1183.5 1535.5,1215.5 1535.5,1247.5C 1535.5,1258.17 1535.5,1268.83 1535.5,1279.5C 1546.17,1279.5 1556.83,1279.5 1567.5,1279.5C 1567.5,1290.17 1567.5,1300.83 1567.5,1311.5C 1556.83,1311.5 1546.17,1311.5 1535.5,1311.5C 1535.5,1332.83 1535.5,1354.17 1535.5,1375.5C 1514.17,1375.5 1492.83,1375.5 1471.5,1375.5C 1471.5,1386.17 1471.5,1396.83 1471.5,1407.5C 1439.5,1407.5 1407.5,1407.5 1375.5,1407.5C 1375.5,1386.17 1375.5,1364.83 1375.5,1343.5C 1364.83,1343.5 1354.17,1343.5 1343.5,1343.5C 1343.5,1311.5 1343.5,1279.5 1343.5,1247.5C 1332.83,1247.5 1322.17,1247.5 1311.5,1247.5C 1311.5,1236.83 1311.5,1226.17 1311.5,1215.5C 1311.5,1204.83 1311.5,1194.17 1311.5,1183.5C 1311.5,1162.17 1311.5,1140.83 1311.5,1119.5C 1300.83,1119.5 1290.17,1119.5 1279.5,1119.5C 1279.5,1098.17 1279.5,1076.83 1279.5,1055.5C 1268.83,1055.5 1258.17,1055.5 1247.5,1055.5C 1247.5,1034.17 1247.5,1012.83 1247.5,991.5C 1258.17,991.5 1268.83,991.5 1279.5,991.5C 1279.5,980.833 1279.5,970.167 1279.5,959.5C 1311.5,959.5 1343.5,959.5 1375.5,959.5 Z"/></g>
<g><path style="opacity:1" fill="#513b3b" d="M 1407.5,959.5 C 1418.17,959.5 1428.83,959.5 1439.5,959.5C 1439.5,970.167 1439.5,980.833 1439.5,991.5C 1439.5,980.833 1439.5,970.167 1439.5,959.5C 1428.83,959.5 1418.17,959.5 1407.5,959.5 Z"/></g>
<g><path style="opacity:1" fill="#463234" d="M 479.5,991.5 C 490.167,991.5 500.833,991.5 511.5,991.5C 511.5,1002.17 511.5,1012.83 511.5,1023.5C 511.5,1034.17 511.5,1044.83 511.5,1055.5C 500.833,1055.5 490.167,1055.5 479.5,1055.5C 479.5,1044.83 479.5,1034.17 479.5,1023.5C 479.5,1012.83 479.5,1002.17 479.5,991.5 Z"/></g>
<g><path style="opacity:1" fill="#ddcfc0" d="M 543.5,991.5 C 554.167,991.5 564.833,991.5 575.5,991.5C 575.5,1002.17 575.5,1012.83 575.5,1023.5C 564.833,1023.5 554.167,1023.5 543.5,1023.5C 543.5,1012.83 543.5,1002.17 543.5,991.5 Z"/></g>
<g><path style="opacity:1" fill="#4b3222" d="M 575.5,991.5 C 586.167,991.5 596.833,991.5 607.5,991.5C 607.5,1002.17 607.5,1012.83 607.5,1023.5C 607.5,1034.17 607.5,1044.83 607.5,1055.5C 596.833,1055.5 586.167,1055.5 575.5,1055.5C 575.5,1044.83 575.5,1034.17 575.5,1023.5C 575.5,1012.83 575.5,1002.17 575.5,991.5 Z"/></g>
<g><path style="opacity:1" fill="#8f8076" d="M 607.5,991.5 C 618.167,991.5 628.833,991.5 639.5,991.5C 650.167,991.5 660.833,991.5 671.5,991.5C 671.5,1002.17 671.5,1012.83 671.5,1023.5C 660.833,1023.5 650.167,1023.5 639.5,1023.5C 628.833,1023.5 618.167,1023.5 607.5,1023.5C 607.5,1012.83 607.5,1002.17 607.5,991.5 Z"/></g>
<g><path style="opacity:1" fill="#533b2c" d="M 671.5,991.5 C 682.167,991.5 692.833,991.5 703.5,991.5C 703.5,1002.17 703.5,1012.83 703.5,1023.5C 692.833,1023.5 682.167,1023.5 671.5,1023.5C 671.5,1012.83 671.5,1002.17 671.5,991.5 Z"/></g>
<g><path style="opacity:1" fill="#f2e6d8" d="M 703.5,991.5 C 714.167,991.5 724.833,991.5 735.5,991.5C 735.5,1002.17 735.5,1012.83 735.5,1023.5C 724.833,1023.5 714.167,1023.5 703.5,1023.5C 703.5,1012.83 703.5,1002.17 703.5,991.5 Z"/></g>
<g><path style="opacity:1" fill="#897d7e" d="M 735.5,991.5 C 746.167,991.5 756.833,991.5 767.5,991.5C 767.5,1002.17 767.5,1012.83 767.5,1023.5C 756.833,1023.5 746.167,1023.5 735.5,1023.5C 735.5,1012.83 735.5,1002.17 735.5,991.5 Z"/></g>
<g><path style="opacity:1" fill="#d0807f" d="M 479.5,1023.5 C 479.5,1034.17 479.5,1044.83 479.5,1055.5C 490.167,1055.5 500.833,1055.5 511.5,1055.5C 511.5,1066.17 511.5,1076.83 511.5,1087.5C 511.5,1098.17 511.5,1108.83 511.5,1119.5C 490.167,1119.5 468.833,1119.5 447.5,1119.5C 447.5,1108.83 447.5,1098.17 447.5,1087.5C 436.833,1087.5 426.167,1087.5 415.5,1087.5C 415.5,1076.83 415.5,1066.17 415.5,1055.5C 426.167,1055.5 436.833,1055.5 447.5,1055.5C 447.5,1044.83 447.5,1034.17 447.5,1023.5C 458.167,1023.5 468.833,1023.5 479.5,1023.5 Z"/></g>
<g><path style="opacity:1" fill="#f1e4d5" d="M 511.5,1023.5 C 522.167,1023.5 532.833,1023.5 543.5,1023.5C 543.5,1044.83 543.5,1066.17 543.5,1087.5C 532.833,1087.5 522.167,1087.5 511.5,1087.5C 511.5,1076.83 511.5,1066.17 511.5,1055.5C 511.5,1044.83 511.5,1034.17 511.5,1023.5 Z"/></g>
<g><path style="opacity:1" fill="#442a1a" d="M 543.5,1023.5 C 554.167,1023.5 564.833,1023.5 575.5,1023.5C 575.5,1034.17 575.5,1044.83 575.5,1055.5C 586.167,1055.5 596.833,1055.5 607.5,1055.5C 607.5,1066.17 607.5,1076.83 607.5,1087.5C 618.167,1087.5 628.833,1087.5 639.5,1087.5C 639.5,1076.83 639.5,1066.17 639.5,1055.5C 650.167,1055.5 660.833,1055.5 671.5,1055.5C 682.167,1055.5 692.833,1055.5 703.5,1055.5C 703.5,1066.17 703.5,1076.83 703.5,1087.5C 703.5,1098.17 703.5,1108.83 703.5,1119.5C 660.833,1119.5 618.167,1119.5 575.5,1119.5C 575.5,1108.83 575.5,1098.17 575.5,1087.5C 564.833,1087.5 554.167,1087.5 543.5,1087.5C 543.5,1066.17 543.5,1044.83 543.5,1023.5 Z"/></g>
<g><path style="opacity:1" fill="#88786e" d="M 607.5,1023.5 C 618.167,1023.5 628.833,1023.5 639.5,1023.5C 639.5,1034.17 639.5,1044.83 639.5,1055.5C 628.833,1055.5 618.167,1055.5 607.5,1055.5C 607.5,1044.83 607.5,1034.17 607.5,1023.5 Z"/></g>
<g><path style="opacity:1" fill="#533b2c" d="M 639.5,1023.5 C 650.167,1023.5 660.833,1023.5 671.5,1023.5C 671.5,1034.17 671.5,1044.83 671.5,1055.5C 660.833,1055.5 650.167,1055.5 639.5,1055.5C 639.5,1044.83 639.5,1034.17 639.5,1023.5 Z"/></g>
<g><path style="opacity:1" fill="#4b3222" d="M 671.5,1023.5 C 682.167,1023.5 692.833,1023.5 703.5,1023.5C 703.5,1034.17 703.5,1044.83 703.5,1055.5C 692.833,1055.5 682.167,1055.5 671.5,1055.5C 671.5,1044.83 671.5,1034.17 671.5,1023.5 Z"/></g>
<g><path style="opacity:1" fill="#806f64" d="M 703.5,1023.5 C 714.167,1023.5 724.833,1023.5 735.5,1023.5C 735.5,1034.17 735.5,1044.83 735.5,1055.5C 724.833,1055.5 714.167,1055.5 703.5,1055.5C 703.5,1044.83 703.5,1034.17 703.5,1023.5 Z"/></g>
<g><path style="opacity:1" fill="#f2e4d7" d="M 735.5,1023.5 C 746.167,1023.5 756.833,1023.5 767.5,1023.5C 767.5,1044.83 767.5,1066.17 767.5,1087.5C 756.833,1087.5 746.167,1087.5 735.5,1087.5C 735.5,1076.83 735.5,1066.17 735.5,1055.5C 735.5,1044.83 735.5,1034.17 735.5,1023.5 Z"/></g>
<g><path style="opacity:1" fill="#38292c" d="M 767.5,1023.5 C 778.167,1023.5 788.833,1023.5 799.5,1023.5C 799.5,1055.5 799.5,1087.5 799.5,1119.5C 810.167,1119.5 820.833,1119.5 831.5,1119.5C 831.5,1130.17 831.5,1140.83 831.5,1151.5C 842.167,1151.5 852.833,1151.5 863.5,1151.5C 863.5,1162.17 863.5,1172.83 863.5,1183.5C 874.167,1183.5 884.833,1183.5 895.5,1183.5C 895.5,1194.17 895.5,1204.83 895.5,1215.5C 916.833,1215.5 938.167,1215.5 959.5,1215.5C 959.5,1226.17 959.5,1236.83 959.5,1247.5C 927.5,1247.5 895.5,1247.5 863.5,1247.5C 863.5,1236.83 863.5,1226.17 863.5,1215.5C 852.833,1215.5 842.167,1215.5 831.5,1215.5C 831.5,1204.83 831.5,1194.17 831.5,1183.5C 820.833,1183.5 810.167,1183.5 799.5,1183.5C 799.5,1172.83 799.5,1162.17 799.5,1151.5C 788.833,1151.5 778.167,1151.5 767.5,1151.5C 767.5,1130.17 767.5,1108.83 767.5,1087.5C 767.5,1066.17 767.5,1044.83 767.5,1023.5 Z"/></g>
<g><path style="opacity:1" fill="#513b3b" d="M 1439.5,1023.5 C 1450.17,1023.5 1460.83,1023.5 1471.5,1023.5C 1471.5,1034.17 1471.5,1044.83 1471.5,1055.5C 1471.5,1044.83 1471.5,1034.17 1471.5,1023.5C 1460.83,1023.5 1450.17,1023.5 1439.5,1023.5 Z"/></g>
<g><path style="opacity:1" fill="#4b3222" d="M 607.5,1055.5 C 618.167,1055.5 628.833,1055.5 639.5,1055.5C 639.5,1066.17 639.5,1076.83 639.5,1087.5C 628.833,1087.5 618.167,1087.5 607.5,1087.5C 607.5,1076.83 607.5,1066.17 607.5,1055.5 Z"/></g>
<g><path style="opacity:1" fill="#4b3222" d="M 703.5,1055.5 C 714.167,1055.5 724.833,1055.5 735.5,1055.5C 735.5,1066.17 735.5,1076.83 735.5,1087.5C 724.833,1087.5 714.167,1087.5 703.5,1087.5C 703.5,1076.83 703.5,1066.17 703.5,1055.5 Z"/></g>
<g><path style="opacity:1" fill="#d0baaa" d="M 511.5,1087.5 C 522.167,1087.5 532.833,1087.5 543.5,1087.5C 554.167,1087.5 564.833,1087.5 575.5,1087.5C 575.5,1098.17 575.5,1108.83 575.5,1119.5C 575.5,1130.17 575.5,1140.83 575.5,1151.5C 575.5,1194.17 575.5,1236.83 575.5,1279.5C 564.833,1279.5 554.167,1279.5 543.5,1279.5C 543.5,1268.83 543.5,1258.17 543.5,1247.5C 532.833,1247.5 522.167,1247.5 511.5,1247.5C 511.5,1236.83 511.5,1226.17 511.5,1215.5C 511.5,1204.83 511.5,1194.17 511.5,1183.5C 511.5,1162.17 511.5,1140.83 511.5,1119.5C 511.5,1108.83 511.5,1098.17 511.5,1087.5 Z"/></g>
<g><path style="opacity:1" fill="#f1e4d5" d="M 543.5,1087.5 C 554.167,1087.5 564.833,1087.5 575.5,1087.5C 575.5,1098.17 575.5,1108.83 575.5,1119.5C 564.833,1119.5 554.167,1119.5 543.5,1119.5C 543.5,1108.83 543.5,1098.17 543.5,1087.5 Z"/></g>
<g><path style="opacity:1" fill="#f1e4d5" d="M 703.5,1087.5 C 714.167,1087.5 724.833,1087.5 735.5,1087.5C 735.5,1098.17 735.5,1108.83 735.5,1119.5C 724.833,1119.5 714.167,1119.5 703.5,1119.5C 703.5,1108.83 703.5,1098.17 703.5,1087.5 Z"/></g>
<g><path style="opacity:1" fill="#dccebe" d="M 735.5,1087.5 C 746.167,1087.5 756.833,1087.5 767.5,1087.5C 767.5,1108.83 767.5,1130.17 767.5,1151.5C 767.5,1162.17 767.5,1172.83 767.5,1183.5C 756.833,1183.5 746.167,1183.5 735.5,1183.5C 735.5,1194.17 735.5,1204.83 735.5,1215.5C 735.5,1226.17 735.5,1236.83 735.5,1247.5C 724.833,1247.5 714.167,1247.5 703.5,1247.5C 703.5,1258.17 703.5,1268.83 703.5,1279.5C 692.833,1279.5 682.167,1279.5 671.5,1279.5C 650.167,1279.5 628.833,1279.5 607.5,1279.5C 596.833,1279.5 586.167,1279.5 575.5,1279.5C 575.5,1236.83 575.5,1194.17 575.5,1151.5C 618.167,1151.5 660.833,1151.5 703.5,1151.5C 703.5,1140.83 703.5,1130.17 703.5,1119.5C 714.167,1119.5 724.833,1119.5 735.5,1119.5C 735.5,1108.83 735.5,1098.17 735.5,1087.5 Z"/></g>
<g><path style="opacity:1" fill="#463234" d="M 447.5,1119.5 C 468.833,1119.5 490.167,1119.5 511.5,1119.5C 511.5,1140.83 511.5,1162.17 511.5,1183.5C 500.833,1183.5 490.167,1183.5 479.5,1183.5C 479.5,1172.83 479.5,1162.17 479.5,1151.5C 468.833,1151.5 458.167,1151.5 447.5,1151.5C 447.5,1140.83 447.5,1130.17 447.5,1119.5 Z"/></g>
<g><path style="opacity:1" fill="#f1e4d5" d="M 575.5,1119.5 C 618.167,1119.5 660.833,1119.5 703.5,1119.5C 703.5,1130.17 703.5,1140.83 703.5,1151.5C 660.833,1151.5 618.167,1151.5 575.5,1151.5C 575.5,1140.83 575.5,1130.17 575.5,1119.5 Z"/></g>
<g><path style="opacity:1" fill="#d0807f" d="M 383.5,1151.5 C 404.833,1151.5 426.167,1151.5 447.5,1151.5C 458.167,1151.5 468.833,1151.5 479.5,1151.5C 479.5,1162.17 479.5,1172.83 479.5,1183.5C 479.5,1194.17 479.5,1204.83 479.5,1215.5C 458.167,1215.5 436.833,1215.5 415.5,1215.5C 415.5,1204.83 415.5,1194.17 415.5,1183.5C 404.833,1183.5 394.167,1183.5 383.5,1183.5C 383.5,1172.83 383.5,1162.17 383.5,1151.5 Z"/></g>
<g><path style="opacity:1" fill="#dccebe" d="M 447.5,1151.5 C 458.167,1151.5 468.833,1151.5 479.5,1151.5C 479.5,1162.17 479.5,1172.83 479.5,1183.5C 468.833,1183.5 458.167,1183.5 447.5,1183.5C 447.5,1172.83 447.5,1162.17 447.5,1151.5 Z"/></g>
<g><path style="opacity:1" fill="#6c7e9d" d="M 767.5,1151.5 C 778.167,1151.5 788.833,1151.5 799.5,1151.5C 799.5,1162.17 799.5,1172.83 799.5,1183.5C 799.5,1194.17 799.5,1204.83 799.5,1215.5C 788.833,1215.5 778.167,1215.5 767.5,1215.5C 767.5,1204.83 767.5,1194.17 767.5,1183.5C 767.5,1172.83 767.5,1162.17 767.5,1151.5 Z"/></g>
<g><path style="opacity:1" fill="#38292c" d="M 1247.5,1151.5 C 1258.17,1151.5 1268.83,1151.5 1279.5,1151.5C 1279.5,1162.17 1279.5,1172.83 1279.5,1183.5C 1279.5,1194.17 1279.5,1204.83 1279.5,1215.5C 1268.83,1215.5 1258.17,1215.5 1247.5,1215.5C 1247.5,1226.17 1247.5,1236.83 1247.5,1247.5C 1236.83,1247.5 1226.17,1247.5 1215.5,1247.5C 1204.83,1247.5 1194.17,1247.5 1183.5,1247.5C 1183.5,1236.83 1183.5,1226.17 1183.5,1215.5C 1194.17,1215.5 1204.83,1215.5 1215.5,1215.5C 1215.5,1194.17 1215.5,1172.83 1215.5,1151.5C 1226.17,1151.5 1236.83,1151.5 1247.5,1151.5 Z"/></g>
<g><path style="opacity:1" fill="#463234" d="M 1247.5,1151.5 C 1258.17,1151.5 1268.83,1151.5 1279.5,1151.5C 1279.5,1162.17 1279.5,1172.83 1279.5,1183.5C 1268.83,1183.5 1258.17,1183.5 1247.5,1183.5C 1247.5,1172.83 1247.5,1162.17 1247.5,1151.5 Z"/></g>
<g><path style="opacity:1" fill="#dccebe" d="M 479.5,1183.5 C 490.167,1183.5 500.833,1183.5 511.5,1183.5C 511.5,1194.17 511.5,1204.83 511.5,1215.5C 500.833,1215.5 490.167,1215.5 479.5,1215.5C 479.5,1204.83 479.5,1194.17 479.5,1183.5 Z"/></g>
<g><path style="opacity:1" fill="#516f9a" d="M 767.5,1183.5 C 767.5,1194.17 767.5,1204.83 767.5,1215.5C 756.833,1215.5 746.167,1215.5 735.5,1215.5C 735.5,1204.83 735.5,1194.17 735.5,1183.5C 746.167,1183.5 756.833,1183.5 767.5,1183.5 Z"/></g>
<g><path style="opacity:1" fill="#7da1c9" d="M 799.5,1183.5 C 810.167,1183.5 820.833,1183.5 831.5,1183.5C 831.5,1194.17 831.5,1204.83 831.5,1215.5C 831.5,1226.17 831.5,1236.83 831.5,1247.5C 820.833,1247.5 810.167,1247.5 799.5,1247.5C 799.5,1236.83 799.5,1226.17 799.5,1215.5C 799.5,1204.83 799.5,1194.17 799.5,1183.5 Z"/></g>
<g><path style="opacity:1" fill="#463234" d="M 1279.5,1183.5 C 1290.17,1183.5 1300.83,1183.5 1311.5,1183.5C 1311.5,1194.17 1311.5,1204.83 1311.5,1215.5C 1300.83,1215.5 1290.17,1215.5 1279.5,1215.5C 1279.5,1204.83 1279.5,1194.17 1279.5,1183.5 Z"/></g>
<g><path style="opacity:1" fill="#6c7e9d" d="M 735.5,1215.5 C 746.167,1215.5 756.833,1215.5 767.5,1215.5C 767.5,1226.17 767.5,1236.83 767.5,1247.5C 756.833,1247.5 746.167,1247.5 735.5,1247.5C 735.5,1236.83 735.5,1226.17 735.5,1215.5 Z"/></g>
<g><path style="opacity:1" fill="#5d8dc4" d="M 767.5,1215.5 C 778.167,1215.5 788.833,1215.5 799.5,1215.5C 799.5,1226.17 799.5,1236.83 799.5,1247.5C 788.833,1247.5 778.167,1247.5 767.5,1247.5C 767.5,1236.83 767.5,1226.17 767.5,1215.5 Z"/></g>
<g><path style="opacity:1" fill="#5d8dc4" d="M 831.5,1215.5 C 842.167,1215.5 852.833,1215.5 863.5,1215.5C 863.5,1226.17 863.5,1236.83 863.5,1247.5C 863.5,1268.83 863.5,1290.17 863.5,1311.5C 852.833,1311.5 842.167,1311.5 831.5,1311.5C 820.833,1311.5 810.167,1311.5 799.5,1311.5C 799.5,1322.17 799.5,1332.83 799.5,1343.5C 788.833,1343.5 778.167,1343.5 767.5,1343.5C 767.5,1354.17 767.5,1364.83 767.5,1375.5C 756.833,1375.5 746.167,1375.5 735.5,1375.5C 735.5,1386.17 735.5,1396.83 735.5,1407.5C 724.833,1407.5 714.167,1407.5 703.5,1407.5C 703.5,1396.83 703.5,1386.17 703.5,1375.5C 703.5,1364.83 703.5,1354.17 703.5,1343.5C 714.167,1343.5 724.833,1343.5 735.5,1343.5C 735.5,1332.83 735.5,1322.17 735.5,1311.5C 746.167,1311.5 756.833,1311.5 767.5,1311.5C 767.5,1300.83 767.5,1290.17 767.5,1279.5C 778.167,1279.5 788.833,1279.5 799.5,1279.5C 799.5,1268.83 799.5,1258.17 799.5,1247.5C 810.167,1247.5 820.833,1247.5 831.5,1247.5C 831.5,1236.83 831.5,1226.17 831.5,1215.5 Z"/></g>
<g><path style="opacity:1" fill="#64718b" d="M 1279.5,1215.5 C 1279.5,1226.17 1279.5,1236.83 1279.5,1247.5C 1290.17,1247.5 1300.83,1247.5 1311.5,1247.5C 1311.5,1258.17 1311.5,1268.83 1311.5,1279.5C 1300.83,1279.5 1290.17,1279.5 1279.5,1279.5C 1268.83,1279.5 1258.17,1279.5 1247.5,1279.5C 1247.5,1268.83 1247.5,1258.17 1247.5,1247.5C 1247.5,1236.83 1247.5,1226.17 1247.5,1215.5C 1258.17,1215.5 1268.83,1215.5 1279.5,1215.5 Z"/></g>
<g><path style="opacity:1" fill="#38292c" d="M 1279.5,1215.5 C 1290.17,1215.5 1300.83,1215.5 1311.5,1215.5C 1311.5,1226.17 1311.5,1236.83 1311.5,1247.5C 1300.83,1247.5 1290.17,1247.5 1279.5,1247.5C 1279.5,1236.83 1279.5,1226.17 1279.5,1215.5 Z"/></g>
<g><path style="opacity:1" fill="#6c7e9d" d="M 735.5,1247.5 C 735.5,1258.17 735.5,1268.83 735.5,1279.5C 724.833,1279.5 714.167,1279.5 703.5,1279.5C 703.5,1268.83 703.5,1258.17 703.5,1247.5C 714.167,1247.5 724.833,1247.5 735.5,1247.5 Z"/></g>
<g><path style="opacity:1" fill="#7da1c9" d="M 735.5,1247.5 C 746.167,1247.5 756.833,1247.5 767.5,1247.5C 778.167,1247.5 788.833,1247.5 799.5,1247.5C 799.5,1258.17 799.5,1268.83 799.5,1279.5C 788.833,1279.5 778.167,1279.5 767.5,1279.5C 767.5,1290.17 767.5,1300.83 767.5,1311.5C 756.833,1311.5 746.167,1311.5 735.5,1311.5C 735.5,1322.17 735.5,1332.83 735.5,1343.5C 724.833,1343.5 714.167,1343.5 703.5,1343.5C 703.5,1354.17 703.5,1364.83 703.5,1375.5C 692.833,1375.5 682.167,1375.5 671.5,1375.5C 671.5,1364.83 671.5,1354.17 671.5,1343.5C 671.5,1332.83 671.5,1322.17 671.5,1311.5C 682.167,1311.5 692.833,1311.5 703.5,1311.5C 703.5,1300.83 703.5,1290.17 703.5,1279.5C 714.167,1279.5 724.833,1279.5 735.5,1279.5C 735.5,1268.83 735.5,1258.17 735.5,1247.5 Z"/></g>
<g><path style="opacity:1" fill="#7da1c9" d="M 863.5,1247.5 C 895.5,1247.5 927.5,1247.5 959.5,1247.5C 959.5,1258.17 959.5,1268.83 959.5,1279.5C 959.5,1290.17 959.5,1300.83 959.5,1311.5C 927.5,1311.5 895.5,1311.5 863.5,1311.5C 863.5,1290.17 863.5,1268.83 863.5,1247.5 Z"/></g>
<g><path style="opacity:1" fill="#38292c" d="M 959.5,1247.5 C 991.5,1247.5 1023.5,1247.5 1055.5,1247.5C 1055.5,1258.17 1055.5,1268.83 1055.5,1279.5C 1034.17,1279.5 1012.83,1279.5 991.5,1279.5C 980.833,1279.5 970.167,1279.5 959.5,1279.5C 959.5,1268.83 959.5,1258.17 959.5,1247.5 Z"/></g>
<g><path style="opacity:1" fill="#38292c" d="M 1183.5,1247.5 C 1183.5,1258.17 1183.5,1268.83 1183.5,1279.5C 1172.83,1279.5 1162.17,1279.5 1151.5,1279.5C 1151.5,1268.83 1151.5,1258.17 1151.5,1247.5C 1162.17,1247.5 1172.83,1247.5 1183.5,1247.5 Z"/></g>
<g><path style="opacity:1" fill="#64718b" d="M 1183.5,1247.5 C 1194.17,1247.5 1204.83,1247.5 1215.5,1247.5C 1215.5,1268.83 1215.5,1290.17 1215.5,1311.5C 1204.83,1311.5 1194.17,1311.5 1183.5,1311.5C 1183.5,1300.83 1183.5,1290.17 1183.5,1279.5C 1183.5,1268.83 1183.5,1258.17 1183.5,1247.5 Z"/></g>
<g><path style="opacity:1" fill="#4c6389" d="M 1215.5,1247.5 C 1226.17,1247.5 1236.83,1247.5 1247.5,1247.5C 1247.5,1258.17 1247.5,1268.83 1247.5,1279.5C 1258.17,1279.5 1268.83,1279.5 1279.5,1279.5C 1279.5,1290.17 1279.5,1300.83 1279.5,1311.5C 1268.83,1311.5 1258.17,1311.5 1247.5,1311.5C 1247.5,1322.17 1247.5,1332.83 1247.5,1343.5C 1236.83,1343.5 1226.17,1343.5 1215.5,1343.5C 1215.5,1354.17 1215.5,1364.83 1215.5,1375.5C 1204.83,1375.5 1194.17,1375.5 1183.5,1375.5C 1162.17,1375.5 1140.83,1375.5 1119.5,1375.5C 1108.83,1375.5 1098.17,1375.5 1087.5,1375.5C 1087.5,1364.83 1087.5,1354.17 1087.5,1343.5C 1098.17,1343.5 1108.83,1343.5 1119.5,1343.5C 1130.17,1343.5 1140.83,1343.5 1151.5,1343.5C 1162.17,1343.5 1172.83,1343.5 1183.5,1343.5C 1183.5,1332.83 1183.5,1322.17 1183.5,1311.5C 1194.17,1311.5 1204.83,1311.5 1215.5,1311.5C 1215.5,1290.17 1215.5,1268.83 1215.5,1247.5 Z"/></g>
<g><path style="opacity:1" fill="#513b3b" d="M 1311.5,1247.5 C 1322.17,1247.5 1332.83,1247.5 1343.5,1247.5C 1343.5,1279.5 1343.5,1311.5 1343.5,1343.5C 1332.83,1343.5 1322.17,1343.5 1311.5,1343.5C 1311.5,1322.17 1311.5,1300.83 1311.5,1279.5C 1311.5,1268.83 1311.5,1258.17 1311.5,1247.5 Z"/></g>
<g><path style="opacity:1" fill="#513b3b" d="M 1535.5,1247.5 C 1546.17,1247.5 1556.83,1247.5 1567.5,1247.5C 1567.5,1258.17 1567.5,1268.83 1567.5,1279.5C 1567.5,1268.83 1567.5,1258.17 1567.5,1247.5C 1556.83,1247.5 1546.17,1247.5 1535.5,1247.5 Z"/></g>
<g><path style="opacity:1" fill="#513b3b" d="M 543.5,1279.5 C 554.167,1279.5 564.833,1279.5 575.5,1279.5C 575.5,1290.17 575.5,1300.83 575.5,1311.5C 586.167,1311.5 596.833,1311.5 607.5,1311.5C 607.5,1322.17 607.5,1332.83 607.5,1343.5C 618.167,1343.5 628.833,1343.5 639.5,1343.5C 639.5,1354.17 639.5,1364.83 639.5,1375.5C 628.833,1375.5 618.167,1375.5 607.5,1375.5C 607.5,1386.17 607.5,1396.83 607.5,1407.5C 586.167,1407.5 564.833,1407.5 543.5,1407.5C 543.5,1396.83 543.5,1386.17 543.5,1375.5C 532.833,1375.5 522.167,1375.5 511.5,1375.5C 511.5,1364.83 511.5,1354.17 511.5,1343.5C 522.167,1343.5 532.833,1343.5 543.5,1343.5C 543.5,1332.83 543.5,1322.17 543.5,1311.5C 543.5,1300.83 543.5,1290.17 543.5,1279.5 Z"/></g>
<g><path style="opacity:1" fill="#463234" d="M 575.5,1279.5 C 586.167,1279.5 596.833,1279.5 607.5,1279.5C 607.5,1290.17 607.5,1300.83 607.5,1311.5C 596.833,1311.5 586.167,1311.5 575.5,1311.5C 575.5,1300.83 575.5,1290.17 575.5,1279.5 Z"/></g>
<g><path style="opacity:1" fill="#516f9a" d="M 607.5,1279.5 C 628.833,1279.5 650.167,1279.5 671.5,1279.5C 671.5,1290.17 671.5,1300.83 671.5,1311.5C 660.833,1311.5 650.167,1311.5 639.5,1311.5C 628.833,1311.5 618.167,1311.5 607.5,1311.5C 607.5,1300.83 607.5,1290.17 607.5,1279.5 Z"/></g>
<g><path style="opacity:1" fill="#6c7e9d" d="M 671.5,1279.5 C 682.167,1279.5 692.833,1279.5 703.5,1279.5C 703.5,1290.17 703.5,1300.83 703.5,1311.5C 692.833,1311.5 682.167,1311.5 671.5,1311.5C 671.5,1300.83 671.5,1290.17 671.5,1279.5 Z"/></g>
<g><path style="opacity:1" fill="#5d8dc4" d="M 959.5,1279.5 C 970.167,1279.5 980.833,1279.5 991.5,1279.5C 991.5,1300.83 991.5,1322.17 991.5,1343.5C 1012.83,1343.5 1034.17,1343.5 1055.5,1343.5C 1066.17,1343.5 1076.83,1343.5 1087.5,1343.5C 1087.5,1354.17 1087.5,1364.83 1087.5,1375.5C 1076.83,1375.5 1066.17,1375.5 1055.5,1375.5C 1055.5,1396.83 1055.5,1418.17 1055.5,1439.5C 1044.83,1439.5 1034.17,1439.5 1023.5,1439.5C 1023.5,1482.17 1023.5,1524.83 1023.5,1567.5C 1002.17,1567.5 980.833,1567.5 959.5,1567.5C 959.5,1546.17 959.5,1524.83 959.5,1503.5C 959.5,1482.17 959.5,1460.83 959.5,1439.5C 970.167,1439.5 980.833,1439.5 991.5,1439.5C 991.5,1418.17 991.5,1396.83 991.5,1375.5C 980.833,1375.5 970.167,1375.5 959.5,1375.5C 959.5,1364.83 959.5,1354.17 959.5,1343.5C 938.167,1343.5 916.833,1343.5 895.5,1343.5C 884.833,1343.5 874.167,1343.5 863.5,1343.5C 863.5,1332.83 863.5,1322.17 863.5,1311.5C 895.5,1311.5 927.5,1311.5 959.5,1311.5C 959.5,1300.83 959.5,1290.17 959.5,1279.5 Z"/></g>
<g><path style="opacity:1" fill="#7da1c9" d="M 991.5,1279.5 C 1012.83,1279.5 1034.17,1279.5 1055.5,1279.5C 1066.17,1279.5 1076.83,1279.5 1087.5,1279.5C 1087.5,1290.17 1087.5,1300.83 1087.5,1311.5C 1076.83,1311.5 1066.17,1311.5 1055.5,1311.5C 1055.5,1322.17 1055.5,1332.83 1055.5,1343.5C 1034.17,1343.5 1012.83,1343.5 991.5,1343.5C 991.5,1322.17 991.5,1300.83 991.5,1279.5 Z"/></g>
<g><path style="opacity:1" fill="#5d8dc4" d="M 1087.5,1279.5 C 1098.17,1279.5 1108.83,1279.5 1119.5,1279.5C 1119.5,1290.17 1119.5,1300.83 1119.5,1311.5C 1108.83,1311.5 1098.17,1311.5 1087.5,1311.5C 1087.5,1300.83 1087.5,1290.17 1087.5,1279.5 Z"/></g>
<g><path style="opacity:1" fill="#7da1c9" d="M 1119.5,1279.5 C 1130.17,1279.5 1140.83,1279.5 1151.5,1279.5C 1151.5,1290.17 1151.5,1300.83 1151.5,1311.5C 1140.83,1311.5 1130.17,1311.5 1119.5,1311.5C 1119.5,1300.83 1119.5,1290.17 1119.5,1279.5 Z"/></g>
<g><path style="opacity:1" fill="#6c7e9d" d="M 1151.5,1279.5 C 1162.17,1279.5 1172.83,1279.5 1183.5,1279.5C 1183.5,1290.17 1183.5,1300.83 1183.5,1311.5C 1172.83,1311.5 1162.17,1311.5 1151.5,1311.5C 1151.5,1300.83 1151.5,1290.17 1151.5,1279.5 Z"/></g>
<g><path style="opacity:1" fill="#d0807f" d="M 1279.5,1279.5 C 1290.17,1279.5 1300.83,1279.5 1311.5,1279.5C 1311.5,1300.83 1311.5,1322.17 1311.5,1343.5C 1311.5,1354.17 1311.5,1364.83 1311.5,1375.5C 1300.83,1375.5 1290.17,1375.5 1279.5,1375.5C 1279.5,1386.17 1279.5,1396.83 1279.5,1407.5C 1268.83,1407.5 1258.17,1407.5 1247.5,1407.5C 1247.5,1418.17 1247.5,1428.83 1247.5,1439.5C 1236.83,1439.5 1226.17,1439.5 1215.5,1439.5C 1215.5,1418.17 1215.5,1396.83 1215.5,1375.5C 1215.5,1364.83 1215.5,1354.17 1215.5,1343.5C 1226.17,1343.5 1236.83,1343.5 1247.5,1343.5C 1247.5,1332.83 1247.5,1322.17 1247.5,1311.5C 1258.17,1311.5 1268.83,1311.5 1279.5,1311.5C 1279.5,1300.83 1279.5,1290.17 1279.5,1279.5 Z"/></g>
<g><path style="opacity:1" fill="#d0898d" d="M 543.5,1311.5 C 543.5,1322.17 543.5,1332.83 543.5,1343.5C 532.833,1343.5 522.167,1343.5 511.5,1343.5C 511.5,1332.83 511.5,1322.17 511.5,1311.5C 522.167,1311.5 532.833,1311.5 543.5,1311.5 Z"/></g>
<g><path style="opacity:1" fill="#463234" d="M 607.5,1311.5 C 618.167,1311.5 628.833,1311.5 639.5,1311.5C 639.5,1322.17 639.5,1332.83 639.5,1343.5C 628.833,1343.5 618.167,1343.5 607.5,1343.5C 607.5,1332.83 607.5,1322.17 607.5,1311.5 Z"/></g>
<g><path style="opacity:1" fill="#6c7e9d" d="M 639.5,1311.5 C 650.167,1311.5 660.833,1311.5 671.5,1311.5C 671.5,1322.17 671.5,1332.83 671.5,1343.5C 660.833,1343.5 650.167,1343.5 639.5,1343.5C 639.5,1332.83 639.5,1322.17 639.5,1311.5 Z"/></g>
<g><path style="opacity:1" fill="#7da1c9" d="M 831.5,1311.5 C 831.5,1332.83 831.5,1354.17 831.5,1375.5C 820.833,1375.5 810.167,1375.5 799.5,1375.5C 799.5,1386.17 799.5,1396.83 799.5,1407.5C 778.167,1407.5 756.833,1407.5 735.5,1407.5C 735.5,1396.83 735.5,1386.17 735.5,1375.5C 746.167,1375.5 756.833,1375.5 767.5,1375.5C 767.5,1364.83 767.5,1354.17 767.5,1343.5C 778.167,1343.5 788.833,1343.5 799.5,1343.5C 799.5,1332.83 799.5,1322.17 799.5,1311.5C 810.167,1311.5 820.833,1311.5 831.5,1311.5 Z"/></g>
<g><path style="opacity:1" fill="#6987b0" d="M 831.5,1311.5 C 842.167,1311.5 852.833,1311.5 863.5,1311.5C 863.5,1322.17 863.5,1332.83 863.5,1343.5C 863.5,1354.17 863.5,1364.83 863.5,1375.5C 852.833,1375.5 842.167,1375.5 831.5,1375.5C 831.5,1354.17 831.5,1332.83 831.5,1311.5 Z"/></g>
<g><path style="opacity:1" fill="#6c7e9d" d="M 1087.5,1311.5 C 1087.5,1322.17 1087.5,1332.83 1087.5,1343.5C 1076.83,1343.5 1066.17,1343.5 1055.5,1343.5C 1055.5,1332.83 1055.5,1322.17 1055.5,1311.5C 1066.17,1311.5 1076.83,1311.5 1087.5,1311.5 Z"/></g>
<g><path style="opacity:1" fill="#516f9a" d="M 1087.5,1311.5 C 1098.17,1311.5 1108.83,1311.5 1119.5,1311.5C 1119.5,1322.17 1119.5,1332.83 1119.5,1343.5C 1108.83,1343.5 1098.17,1343.5 1087.5,1343.5C 1087.5,1332.83 1087.5,1322.17 1087.5,1311.5 Z"/></g>
<g><path style="opacity:1" fill="#6c7e9d" d="M 1119.5,1311.5 C 1130.17,1311.5 1140.83,1311.5 1151.5,1311.5C 1151.5,1322.17 1151.5,1332.83 1151.5,1343.5C 1140.83,1343.5 1130.17,1343.5 1119.5,1343.5C 1119.5,1332.83 1119.5,1322.17 1119.5,1311.5 Z"/></g>
<g><path style="opacity:1" fill="#64718b" d="M 1151.5,1311.5 C 1162.17,1311.5 1172.83,1311.5 1183.5,1311.5C 1183.5,1322.17 1183.5,1332.83 1183.5,1343.5C 1172.83,1343.5 1162.17,1343.5 1151.5,1343.5C 1151.5,1332.83 1151.5,1322.17 1151.5,1311.5 Z"/></g>
<g><path style="opacity:1" fill="#513b3b" d="M 1567.5,1311.5 C 1567.5,1343.5 1567.5,1375.5 1567.5,1407.5C 1556.83,1407.5 1546.17,1407.5 1535.5,1407.5C 1535.5,1418.17 1535.5,1428.83 1535.5,1439.5C 1503.5,1439.5 1471.5,1439.5 1439.5,1439.5C 1439.5,1450.17 1439.5,1460.83 1439.5,1471.5C 1428.83,1471.5 1418.17,1471.5 1407.5,1471.5C 1396.83,1471.5 1386.17,1471.5 1375.5,1471.5C 1375.5,1460.83 1375.5,1450.17 1375.5,1439.5C 1375.5,1428.83 1375.5,1418.17 1375.5,1407.5C 1407.5,1407.5 1439.5,1407.5 1471.5,1407.5C 1471.5,1396.83 1471.5,1386.17 1471.5,1375.5C 1492.83,1375.5 1514.17,1375.5 1535.5,1375.5C 1535.5,1354.17 1535.5,1332.83 1535.5,1311.5C 1546.17,1311.5 1556.83,1311.5 1567.5,1311.5 Z"/></g>
<g><path style="opacity:1" fill="#463234" d="M 1567.5,1311.5 C 1578.17,1311.5 1588.83,1311.5 1599.5,1311.5C 1599.5,1354.17 1599.5,1396.83 1599.5,1439.5C 1588.83,1439.5 1578.17,1439.5 1567.5,1439.5C 1567.5,1450.17 1567.5,1460.83 1567.5,1471.5C 1546.17,1471.5 1524.83,1471.5 1503.5,1471.5C 1503.5,1482.17 1503.5,1492.83 1503.5,1503.5C 1492.83,1503.5 1482.17,1503.5 1471.5,1503.5C 1471.5,1492.83 1471.5,1482.17 1471.5,1471.5C 1460.83,1471.5 1450.17,1471.5 1439.5,1471.5C 1439.5,1460.83 1439.5,1450.17 1439.5,1439.5C 1471.5,1439.5 1503.5,1439.5 1535.5,1439.5C 1535.5,1428.83 1535.5,1418.17 1535.5,1407.5C 1546.17,1407.5 1556.83,1407.5 1567.5,1407.5C 1567.5,1375.5 1567.5,1343.5 1567.5,1311.5 Z"/></g>
<g><path style="opacity:1" fill="#463234" d="M 639.5,1343.5 C 650.167,1343.5 660.833,1343.5 671.5,1343.5C 671.5,1354.17 671.5,1364.83 671.5,1375.5C 682.167,1375.5 692.833,1375.5 703.5,1375.5C 703.5,1386.17 703.5,1396.83 703.5,1407.5C 714.167,1407.5 724.833,1407.5 735.5,1407.5C 735.5,1418.17 735.5,1428.83 735.5,1439.5C 692.833,1439.5 650.167,1439.5 607.5,1439.5C 596.833,1439.5 586.167,1439.5 575.5,1439.5C 564.833,1439.5 554.167,1439.5 543.5,1439.5C 543.5,1428.83 543.5,1418.17 543.5,1407.5C 564.833,1407.5 586.167,1407.5 607.5,1407.5C 607.5,1396.83 607.5,1386.17 607.5,1375.5C 618.167,1375.5 628.833,1375.5 639.5,1375.5C 639.5,1364.83 639.5,1354.17 639.5,1343.5 Z"/></g>
<g><path style="opacity:1" fill="#537fb7" d="M 863.5,1343.5 C 874.167,1343.5 884.833,1343.5 895.5,1343.5C 895.5,1354.17 895.5,1364.83 895.5,1375.5C 906.167,1375.5 916.833,1375.5 927.5,1375.5C 927.5,1386.17 927.5,1396.83 927.5,1407.5C 916.833,1407.5 906.167,1407.5 895.5,1407.5C 884.833,1407.5 874.167,1407.5 863.5,1407.5C 863.5,1418.17 863.5,1428.83 863.5,1439.5C 852.833,1439.5 842.167,1439.5 831.5,1439.5C 831.5,1450.17 831.5,1460.83 831.5,1471.5C 820.833,1471.5 810.167,1471.5 799.5,1471.5C 799.5,1460.83 799.5,1450.17 799.5,1439.5C 799.5,1428.83 799.5,1418.17 799.5,1407.5C 810.167,1407.5 820.833,1407.5 831.5,1407.5C 831.5,1396.83 831.5,1386.17 831.5,1375.5C 842.167,1375.5 852.833,1375.5 863.5,1375.5C 863.5,1364.83 863.5,1354.17 863.5,1343.5 Z"/></g>
<g><path style="opacity:1" fill="#7da1c9" d="M 895.5,1343.5 C 916.833,1343.5 938.167,1343.5 959.5,1343.5C 959.5,1354.17 959.5,1364.83 959.5,1375.5C 970.167,1375.5 980.833,1375.5 991.5,1375.5C 991.5,1396.83 991.5,1418.17 991.5,1439.5C 980.833,1439.5 970.167,1439.5 959.5,1439.5C 959.5,1460.83 959.5,1482.17 959.5,1503.5C 948.833,1503.5 938.167,1503.5 927.5,1503.5C 927.5,1471.5 927.5,1439.5 927.5,1407.5C 927.5,1396.83 927.5,1386.17 927.5,1375.5C 916.833,1375.5 906.167,1375.5 895.5,1375.5C 895.5,1364.83 895.5,1354.17 895.5,1343.5 Z"/></g>
<g><path style="opacity:1" fill="#463234" d="M 1311.5,1343.5 C 1322.17,1343.5 1332.83,1343.5 1343.5,1343.5C 1343.5,1364.83 1343.5,1386.17 1343.5,1407.5C 1332.83,1407.5 1322.17,1407.5 1311.5,1407.5C 1300.83,1407.5 1290.17,1407.5 1279.5,1407.5C 1279.5,1396.83 1279.5,1386.17 1279.5,1375.5C 1290.17,1375.5 1300.83,1375.5 1311.5,1375.5C 1311.5,1364.83 1311.5,1354.17 1311.5,1343.5 Z"/></g>
<g><path style="opacity:1" fill="#513b3b" d="M 1343.5,1343.5 C 1354.17,1343.5 1364.83,1343.5 1375.5,1343.5C 1375.5,1364.83 1375.5,1386.17 1375.5,1407.5C 1364.83,1407.5 1354.17,1407.5 1343.5,1407.5C 1343.5,1386.17 1343.5,1364.83 1343.5,1343.5 Z"/></g>
<g><path style="opacity:1" fill="#d0898d" d="M 511.5,1375.5 C 522.167,1375.5 532.833,1375.5 543.5,1375.5C 543.5,1386.17 543.5,1396.83 543.5,1407.5C 532.833,1407.5 522.167,1407.5 511.5,1407.5C 511.5,1396.83 511.5,1386.17 511.5,1375.5 Z"/></g>
<g><path style="opacity:1" fill="#6987b0" d="M 831.5,1375.5 C 831.5,1386.17 831.5,1396.83 831.5,1407.5C 820.833,1407.5 810.167,1407.5 799.5,1407.5C 799.5,1396.83 799.5,1386.17 799.5,1375.5C 810.167,1375.5 820.833,1375.5 831.5,1375.5 Z"/></g>
<g><path style="opacity:1" fill="#7da1c9" d="M 1087.5,1375.5 C 1098.17,1375.5 1108.83,1375.5 1119.5,1375.5C 1119.5,1418.17 1119.5,1460.83 1119.5,1503.5C 1108.83,1503.5 1098.17,1503.5 1087.5,1503.5C 1087.5,1524.83 1087.5,1546.17 1087.5,1567.5C 1066.17,1567.5 1044.83,1567.5 1023.5,1567.5C 1023.5,1524.83 1023.5,1482.17 1023.5,1439.5C 1034.17,1439.5 1044.83,1439.5 1055.5,1439.5C 1055.5,1418.17 1055.5,1396.83 1055.5,1375.5C 1066.17,1375.5 1076.83,1375.5 1087.5,1375.5 Z"/></g>
<g><path style="opacity:1" fill="#516f9a" d="M 1119.5,1375.5 C 1140.83,1375.5 1162.17,1375.5 1183.5,1375.5C 1183.5,1386.17 1183.5,1396.83 1183.5,1407.5C 1172.83,1407.5 1162.17,1407.5 1151.5,1407.5C 1151.5,1450.17 1151.5,1492.83 1151.5,1535.5C 1140.83,1535.5 1130.17,1535.5 1119.5,1535.5C 1119.5,1524.83 1119.5,1514.17 1119.5,1503.5C 1119.5,1460.83 1119.5,1418.17 1119.5,1375.5 Z"/></g>
<g><path style="opacity:1" fill="#64718b" d="M 1183.5,1375.5 C 1194.17,1375.5 1204.83,1375.5 1215.5,1375.5C 1215.5,1396.83 1215.5,1418.17 1215.5,1439.5C 1226.17,1439.5 1236.83,1439.5 1247.5,1439.5C 1247.5,1460.83 1247.5,1482.17 1247.5,1503.5C 1258.17,1503.5 1268.83,1503.5 1279.5,1503.5C 1279.5,1514.17 1279.5,1524.83 1279.5,1535.5C 1268.83,1535.5 1258.17,1535.5 1247.5,1535.5C 1247.5,1556.83 1247.5,1578.17 1247.5,1599.5C 1226.17,1599.5 1204.83,1599.5 1183.5,1599.5C 1183.5,1535.5 1183.5,1471.5 1183.5,1407.5C 1183.5,1396.83 1183.5,1386.17 1183.5,1375.5 Z"/></g>
<g><path style="opacity:1" fill="#6987b0" d="M 735.5,1407.5 C 756.833,1407.5 778.167,1407.5 799.5,1407.5C 799.5,1418.17 799.5,1428.83 799.5,1439.5C 778.167,1439.5 756.833,1439.5 735.5,1439.5C 735.5,1428.83 735.5,1418.17 735.5,1407.5 Z"/></g>
<g><path style="opacity:1" fill="#6987b0" d="M 895.5,1407.5 C 895.5,1418.17 895.5,1428.83 895.5,1439.5C 884.833,1439.5 874.167,1439.5 863.5,1439.5C 863.5,1428.83 863.5,1418.17 863.5,1407.5C 874.167,1407.5 884.833,1407.5 895.5,1407.5 Z"/></g>
<g><path style="opacity:1" fill="#50658e" d="M 895.5,1407.5 C 906.167,1407.5 916.833,1407.5 927.5,1407.5C 927.5,1439.5 927.5,1471.5 927.5,1503.5C 916.833,1503.5 906.167,1503.5 895.5,1503.5C 895.5,1492.83 895.5,1482.17 895.5,1471.5C 884.833,1471.5 874.167,1471.5 863.5,1471.5C 863.5,1460.83 863.5,1450.17 863.5,1439.5C 874.167,1439.5 884.833,1439.5 895.5,1439.5C 895.5,1428.83 895.5,1418.17 895.5,1407.5 Z"/></g>
<g><path style="opacity:1" fill="#4c6389" d="M 1183.5,1407.5 C 1183.5,1471.5 1183.5,1535.5 1183.5,1599.5C 1162.17,1599.5 1140.83,1599.5 1119.5,1599.5C 1119.5,1578.17 1119.5,1556.83 1119.5,1535.5C 1130.17,1535.5 1140.83,1535.5 1151.5,1535.5C 1151.5,1492.83 1151.5,1450.17 1151.5,1407.5C 1162.17,1407.5 1172.83,1407.5 1183.5,1407.5 Z"/></g>
<g><path style="opacity:1" fill="#4c6389" d="M 1279.5,1407.5 C 1279.5,1418.17 1279.5,1428.83 1279.5,1439.5C 1279.5,1460.83 1279.5,1482.17 1279.5,1503.5C 1268.83,1503.5 1258.17,1503.5 1247.5,1503.5C 1247.5,1482.17 1247.5,1460.83 1247.5,1439.5C 1247.5,1428.83 1247.5,1418.17 1247.5,1407.5C 1258.17,1407.5 1268.83,1407.5 1279.5,1407.5 Z"/></g>
<g><path style="opacity:1" fill="#d0898d" d="M 1279.5,1407.5 C 1290.17,1407.5 1300.83,1407.5 1311.5,1407.5C 1311.5,1418.17 1311.5,1428.83 1311.5,1439.5C 1300.83,1439.5 1290.17,1439.5 1279.5,1439.5C 1279.5,1428.83 1279.5,1418.17 1279.5,1407.5 Z"/></g>
<g><path style="opacity:1" fill="#dba2a1" d="M 1311.5,1407.5 C 1322.17,1407.5 1332.83,1407.5 1343.5,1407.5C 1343.5,1418.17 1343.5,1428.83 1343.5,1439.5C 1354.17,1439.5 1364.83,1439.5 1375.5,1439.5C 1375.5,1450.17 1375.5,1460.83 1375.5,1471.5C 1375.5,1482.17 1375.5,1492.83 1375.5,1503.5C 1364.83,1503.5 1354.17,1503.5 1343.5,1503.5C 1343.5,1514.17 1343.5,1524.83 1343.5,1535.5C 1332.83,1535.5 1322.17,1535.5 1311.5,1535.5C 1311.5,1546.17 1311.5,1556.83 1311.5,1567.5C 1300.83,1567.5 1290.17,1567.5 1279.5,1567.5C 1279.5,1556.83 1279.5,1546.17 1279.5,1535.5C 1279.5,1524.83 1279.5,1514.17 1279.5,1503.5C 1279.5,1482.17 1279.5,1460.83 1279.5,1439.5C 1290.17,1439.5 1300.83,1439.5 1311.5,1439.5C 1311.5,1428.83 1311.5,1418.17 1311.5,1407.5 Z"/></g>
<g><path style="opacity:1" fill="#463234" d="M 1343.5,1407.5 C 1354.17,1407.5 1364.83,1407.5 1375.5,1407.5C 1375.5,1418.17 1375.5,1428.83 1375.5,1439.5C 1364.83,1439.5 1354.17,1439.5 1343.5,1439.5C 1343.5,1428.83 1343.5,1418.17 1343.5,1407.5 Z"/></g>
<g><path style="opacity:1" fill="#d0898d" d="M 575.5,1439.5 C 586.167,1439.5 596.833,1439.5 607.5,1439.5C 607.5,1450.17 607.5,1460.83 607.5,1471.5C 596.833,1471.5 586.167,1471.5 575.5,1471.5C 575.5,1460.83 575.5,1450.17 575.5,1439.5 Z"/></g>
<g><path style="opacity:1" fill="#38292c" d="M 607.5,1439.5 C 650.167,1439.5 692.833,1439.5 735.5,1439.5C 756.833,1439.5 778.167,1439.5 799.5,1439.5C 799.5,1450.17 799.5,1460.83 799.5,1471.5C 735.5,1471.5 671.5,1471.5 607.5,1471.5C 607.5,1460.83 607.5,1450.17 607.5,1439.5 Z"/></g>
<g><path style="opacity:1" fill="#6987b0" d="M 863.5,1439.5 C 863.5,1450.17 863.5,1460.83 863.5,1471.5C 852.833,1471.5 842.167,1471.5 831.5,1471.5C 831.5,1460.83 831.5,1450.17 831.5,1439.5C 842.167,1439.5 852.833,1439.5 863.5,1439.5 Z"/></g>
<g><path style="opacity:1" fill="#d0807f" d="M 1599.5,1439.5 C 1599.5,1460.83 1599.5,1482.17 1599.5,1503.5C 1588.83,1503.5 1578.17,1503.5 1567.5,1503.5C 1567.5,1492.83 1567.5,1482.17 1567.5,1471.5C 1567.5,1460.83 1567.5,1450.17 1567.5,1439.5C 1578.17,1439.5 1588.83,1439.5 1599.5,1439.5 Z"/></g>
<g><path style="opacity:1" fill="#463234" d="M 1375.5,1471.5 C 1386.17,1471.5 1396.83,1471.5 1407.5,1471.5C 1407.5,1482.17 1407.5,1492.83 1407.5,1503.5C 1396.83,1503.5 1386.17,1503.5 1375.5,1503.5C 1375.5,1492.83 1375.5,1482.17 1375.5,1471.5 Z"/></g>
<g><path style="opacity:1" fill="#dba2a1" d="M 1407.5,1471.5 C 1418.17,1471.5 1428.83,1471.5 1439.5,1471.5C 1450.17,1471.5 1460.83,1471.5 1471.5,1471.5C 1471.5,1482.17 1471.5,1492.83 1471.5,1503.5C 1471.5,1514.17 1471.5,1524.83 1471.5,1535.5C 1460.83,1535.5 1450.17,1535.5 1439.5,1535.5C 1439.5,1546.17 1439.5,1556.83 1439.5,1567.5C 1428.83,1567.5 1418.17,1567.5 1407.5,1567.5C 1407.5,1578.17 1407.5,1588.83 1407.5,1599.5C 1396.83,1599.5 1386.17,1599.5 1375.5,1599.5C 1375.5,1567.5 1375.5,1535.5 1375.5,1503.5C 1386.17,1503.5 1396.83,1503.5 1407.5,1503.5C 1407.5,1492.83 1407.5,1482.17 1407.5,1471.5 Z"/></g>
<g><path style="opacity:1" fill="#d0898d" d="M 1567.5,1471.5 C 1567.5,1482.17 1567.5,1492.83 1567.5,1503.5C 1567.5,1514.17 1567.5,1524.83 1567.5,1535.5C 1546.17,1535.5 1524.83,1535.5 1503.5,1535.5C 1503.5,1546.17 1503.5,1556.83 1503.5,1567.5C 1492.83,1567.5 1482.17,1567.5 1471.5,1567.5C 1471.5,1556.83 1471.5,1546.17 1471.5,1535.5C 1471.5,1524.83 1471.5,1514.17 1471.5,1503.5C 1482.17,1503.5 1492.83,1503.5 1503.5,1503.5C 1503.5,1492.83 1503.5,1482.17 1503.5,1471.5C 1524.83,1471.5 1546.17,1471.5 1567.5,1471.5 Z"/></g>
<g><path style="opacity:1" fill="#6c7e9d" d="M 1119.5,1503.5 C 1119.5,1514.17 1119.5,1524.83 1119.5,1535.5C 1119.5,1556.83 1119.5,1578.17 1119.5,1599.5C 1108.83,1599.5 1098.17,1599.5 1087.5,1599.5C 1087.5,1588.83 1087.5,1578.17 1087.5,1567.5C 1087.5,1546.17 1087.5,1524.83 1087.5,1503.5C 1098.17,1503.5 1108.83,1503.5 1119.5,1503.5 Z"/></g>
<g><path style="opacity:1" fill="#463234" d="M 959.5,1567.5 C 980.833,1567.5 1002.17,1567.5 1023.5,1567.5C 1044.83,1567.5 1066.17,1567.5 1087.5,1567.5C 1087.5,1578.17 1087.5,1588.83 1087.5,1599.5C 1044.83,1599.5 1002.17,1599.5 959.5,1599.5C 959.5,1588.83 959.5,1578.17 959.5,1567.5 Z"/></g>
<g><path style="opacity:1" fill="#584443" d="M 959.5,1599.5 C 1002.17,1599.5 1044.83,1599.5 1087.5,1599.5C 1087.5,1620.83 1087.5,1642.17 1087.5,1663.5C 1076.83,1663.5 1066.17,1663.5 1055.5,1663.5C 1044.83,1663.5 1034.17,1663.5 1023.5,1663.5C 1012.83,1663.5 1002.17,1663.5 991.5,1663.5C 991.5,1652.83 991.5,1642.17 991.5,1631.5C 980.833,1631.5 970.167,1631.5 959.5,1631.5C 959.5,1620.83 959.5,1610.17 959.5,1599.5 Z"/></g>
<g><path style="opacity:1" fill="#463234" d="M 1087.5,1599.5 C 1098.17,1599.5 1108.83,1599.5 1119.5,1599.5C 1140.83,1599.5 1162.17,1599.5 1183.5,1599.5C 1183.5,1620.83 1183.5,1642.17 1183.5,1663.5C 1172.83,1663.5 1162.17,1663.5 1151.5,1663.5C 1130.17,1663.5 1108.83,1663.5 1087.5,1663.5C 1087.5,1642.17 1087.5,1620.83 1087.5,1599.5 Z"/></g>
<g><path style="opacity:1" fill="#38292c" d="M 1183.5,1599.5 C 1204.83,1599.5 1226.17,1599.5 1247.5,1599.5C 1247.5,1610.17 1247.5,1620.83 1247.5,1631.5C 1236.83,1631.5 1226.17,1631.5 1215.5,1631.5C 1215.5,1642.17 1215.5,1652.83 1215.5,1663.5C 1204.83,1663.5 1194.17,1663.5 1183.5,1663.5C 1183.5,1642.17 1183.5,1620.83 1183.5,1599.5 Z"/></g>
<g><path style="opacity:1" fill="#d0898d" d="M 959.5,1631.5 C 970.167,1631.5 980.833,1631.5 991.5,1631.5C 991.5,1642.17 991.5,1652.83 991.5,1663.5C 980.833,1663.5 970.167,1663.5 959.5,1663.5C 959.5,1652.83 959.5,1642.17 959.5,1631.5 Z"/></g>
<g><path style="opacity:1" fill="#38292c" d="M 1023.5,1663.5 C 1034.17,1663.5 1044.83,1663.5 1055.5,1663.5C 1055.5,1674.17 1055.5,1684.83 1055.5,1695.5C 1044.83,1695.5 1034.17,1695.5 1023.5,1695.5C 1023.5,1684.83 1023.5,1674.17 1023.5,1663.5 Z"/></g>
<g><path style="opacity:1" fill="#d0898d" d="M 1055.5,1663.5 C 1066.17,1663.5 1076.83,1663.5 1087.5,1663.5C 1087.5,1674.17 1087.5,1684.83 1087.5,1695.5C 1076.83,1695.5 1066.17,1695.5 1055.5,1695.5C 1055.5,1684.83 1055.5,1674.17 1055.5,1663.5 Z"/></g>
<g><path style="opacity:1" fill="#38292c" d="M 1087.5,1663.5 C 1108.83,1663.5 1130.17,1663.5 1151.5,1663.5C 1151.5,1674.17 1151.5,1684.83 1151.5,1695.5C 1130.17,1695.5 1108.83,1695.5 1087.5,1695.5C 1087.5,1684.83 1087.5,1674.17 1087.5,1663.5 Z"/></g>
<g><path style="opacity:1" fill="#d0898d" d="M 1151.5,1663.5 C 1162.17,1663.5 1172.83,1663.5 1183.5,1663.5C 1183.5,1674.17 1183.5,1684.83 1183.5,1695.5C 1172.83,1695.5 1162.17,1695.5 1151.5,1695.5C 1151.5,1684.83 1151.5,1674.17 1151.5,1663.5 Z"/></g>
</svg>
